<?xml version="1.0" encoding="UTF-8"?>
<svg id="Laag_1" data-name="Laag 1" xmlns="http://www.w3.org/2000/svg" viewBox="0 0 594.00811 550">
  <defs>
    <style>
      .cls-1 {
        fill: #e8462c;
      }
    </style>
  </defs>
  <path class="cls-1" d="M241.539,27.76691c2.24113-8.96073,8.9645-14.19002,17.929-14.19002l129.96262.00002c16.43492,0,26.88595,13.44298,21.65666,29.8779l-73.94208,229.30407,74.68904,233.78634c5.22929,16.43492-5.22175,29.8779-21.65667,29.87789l-126.22741-.00002c-8.21746,0-15.68788-5.22929-17.929-14.19002l-45.56197-165.81686c-4.48225-17.18196-20.91717-12.69971-20.91717,0l-.00003,159.09348c0,11.94889-8.95696,20.91339-20.90963,20.91339l-118.76454-.00002c-11.95267,0-20.90962-8.9645-20.90962-20.9134l.00008-481.01941c0-11.94889,8.95696-20.91339,20.90963-20.91339l118.76454.00002c11.95267,0,20.90962,8.9645,20.90962,20.9134l-.00003,162.08164c0,12.69971,12.69971,13.44675,15.68788,1.49409L241.539,27.76691Z"/>
  <circle class="cls-1" cx="516.70688" cy="478.08013" r="58.34301"/>
</svg>