<svg xmlns="http://www.w3.org/2000/svg" viewBox="0 0 702.5 621.3" xmlns:c2pa="http://c2pa.org/manifest"><metadata><c2pa:manifest>AAAWgmp1bWIAAAAeanVtZGMycGEAEQAQgAAAqgA4m3EDYzJwYQAAABZcanVtYgAAAEdqdW1kYzJtYQARABCAAACqADibcQN1cm46YzJwYTo3MjI3ZjRiYy05NTIxLTRiMTktYTg1Yi1jMTcyNzYwNzY3MTkAAAADl2p1bWIAAAApanVtZGMyYXMAEQAQgAAAqgA4m3EDYzJwYS5hc3NlcnRpb25zAAAAALxqdW1iAAAARGp1bWRjYm9yABEAEIAAAKoAOJtxE2MycGEuaW5ncmVkaWVudC52MwAAAAAYYzJzaEoKqHo6dpIkQ+jggeZv4o0AAABwY2JvcqNpZGM6Zm9ybWF0bWltYWdlL3N2Zyt4bWxqaW5zdGFuY2VJRHgseG1wOmlpZDoyMTNhNzA1MC1hODU0LTQ4YzUtYjc2Ny00ODYwYmUzMmU3MGFscmVsYXRpb25zaGlwaHBhcmVudE9mAAAB4mp1bWIAAABBanVtZGNib3IAEQAQgAAAqgA4m3ETYzJwYS5hY3Rpb25zLnYyAAAAABhjMnNoUhx9pMxWtc4cxv4l8W3EfAAAAZljYm9yomdhY3Rpb25zgqJmYWN0aW9ua2MycGEub3BlbmVkanBhcmFtZXRlcnOha2luZ3JlZGllbnRzgaJjdXJseC1zZWxmI2p1bWJmPWMycGEuYXNzZXJ0aW9ucy9jMnBhLmluZ3JlZGllbnQudjNkaGFzaFgg3X79OBjP8wYFaAYyBjPEH5IyzbnaOzB5WebwKmAydjakZmFjdGlvbngdY29tLmFudGhyb3BpYy5jbGF1ZGUucHJvdmlkZWRqcGFyYW1ldGVyc6F4H2NvbS5hbnRocm9waWMub3JpZ2luLWNvbmZpZGVuY2VndW5rbm93bmtkZXNjcmlwdGlvbnhmQ2xhdWRlIHByb3ZpZGVkIHRoaXMgZmlsZSBhdCB0aGUgcmVxdWVzdCBvZiBhIHVzZXIgYW5kIG1heSBoYXZlIGNyZWF0ZWQgb3IgbW9kaWZpZWQgdGhlIGZpbGUgY29udGVudHMubXNvZnR3YXJlQWdlbnShZG5hbWVmQ2xhdWRlcmFsbEFjdGlvbnNJbmNsdWRlZPUAAADIanVtYgAAAEBqdW1kY2JvcgARABCAAACqADibcRNjMnBhLmhhc2guZGF0YQAAAAAYYzJzaGJBWL6m6Q7PnNaxpXseNYoAAACAY2JvcqVjYWxnZnNoYTI1NmNwYWRNAAAAAAAAAAAAAAAAAGRoYXNoWCCcIWjznTqzHYrvNY7355jk6Z5Jb++hrjIaUfiPLFm+pWRuYW1lbmp1bWJmIG1hbmlmZXN0amV4Y2x1c2lvbnOBomVzdGFydBiBZmxlbmd0aBkeBAAAAj5qdW1iAAAAJ2p1bWRjMmNsABEAEIAAAKoAOJtxA2MycGEuY2xhaW0udjIAAAACD2Nib3KlY2FsZ2ZzaGEyNTZpc2lnbmF0dXJleE1zZWxmI2p1bWJmPS9jMnBhL3VybjpjMnBhOjcyMjdmNGJjLTk1MjEtNGIxOS1hODViLWMxNzI3NjA3NjcxOS9jMnBhLnNpZ25hdHVyZWppbnN0YW5jZUlEeCx4bXA6aWlkOjc0MGY4YTFjLTM5ZmYtNDUyOS05NTM5LTIyM2YwMjlhMjBiYnJjcmVhdGVkX2Fzc2VydGlvbnODomN1cmx4LXNlbGYjanVtYmY9YzJwYS5hc3NlcnRpb25zL2MycGEuaW5ncmVkaWVudC52M2RoYXNoWCDdfv04GM/zBgVoBjIGM8QfkjLNudo7MHlZ5vAqYDJ2NqJjdXJseCpzZWxmI2p1bWJmPWMycGEuYXNzZXJ0aW9ucy9jMnBhLmFjdGlvbnMudjJkaGFzaFgghF9tulNy4LmYx0+skLV8w5DW/GrvX2657ZedsF+Ee8uiY3VybHgpc2VsZiNqdW1iZj1jMnBhLmFzc2VydGlvbnMvYzJwYS5oYXNoLmRhdGFkaGFzaFgg68p8xuHvbLp/S1WCV/AnS8USKEoPhdN9ZMDLuL2FG6B0Y2xhaW1fZ2VuZXJhdG9yX2luZm+jZG5hbWVvQW50aHJvcGljIEZpbGVzZ3ZlcnNpb25lMS4wLjBrc3BlY1ZlcnNpb25lMi40LjAAABA4anVtYgAAAChqdW1kYzJjcwARABCAAACqADibcQNjMnBhLnNpZ25hdHVyZQAAABAIY2JvctKEWQISogEmGCFZAgowggIGMIIBjaADAgECAhRA5aAK7sI50L64g/oGQgU9Z1UTADAKBggqhkjOPQQDAzBJMRcwFQYDVQQKEw5BbnRocm9waWMsIFBCQzEuMCwGA1UEAxMlQW50aHJvcGljIENvbnRlbnQgQ3JlZGVudGlhbHMgUm9vdCBDQTAeFw0yNjA4MDcxODQzNTZaFw0yODA4MDYxOTQzNTZaMEQxFzAVBgNVBAoTDkFudGhyb3BpYywgUEJDMSkwJwYDVQQDEyBBbnRocm9waWMgQ2xhdWRlIENvbnRlbnQgU2lnbmluZzBZMBMGByqGSM49AgEGCCqGSM49AwEHA0IABJh6CmvLUBgFFNU0vUKlOVtE6djd17L5SuwX0LemFisBM3dkd/3cyjxFA3Qo5S46fX0/ihY0VZ7mfb9KF703t5OjWDBWMA4GA1UdDwEB/wQEAwIHgDAVBgNVHSUEDjAMBgorBgEEAYPoXgIBMAwGA1UdEwEB/wQCMAAwHwYDVR0jBBgwFoAUzlHiBIFOZFsj+OPEz5o+nMHXXMIwCgYIKoZIzj0EAwMDZwAwZAIwMXMdFJ4BetLLVY7ORuE9noqbbAZOZn/aArXyTwFAZfKrPzxF2vPoJNf1+UCdg1XGAjBwX1zd9WGqYkqmL5SFqw1QySjr1zJfpJM9+1rdDwSPLMOPOjKuiXjoU/pUUeG9RwmhY3BhZFkNngAAAAAAAAAAAAAAAAAAAAAAAAAAAAAAAAAAAAAAAAAAAAAAAAAAAAAAAAAAAAAAAAAAAAAAAAAAAAAAAAAAAAAAAAAAAAAAAAAAAAAAAAAAAAAAAAAAAAAAAAAAAAAAAAAAAAAAAAAAAAAAAAAAAAAAAAAAAAAAAAAAAAAAAAAAAAAAAAAAAAAAAAAAAAAAAAAAAAAAAAAAAAAAAAAAAAAAAAAAAAAAAAAAAAAAAAAAAAAAAAAAAAAAAAAAAAAAAAAAAAAAAAAAAAAAAAAAAAAAAAAAAAAAAAAAAAAAAAAAAAAAAAAAAAAAAAAAAAAAAAAAAAAAAAAAAAAAAAAAAAAAAAAAAAAAAAAAAAAAAAAAAAAAAAAAAAAAAAAAAAAAAAAAAAAAAAAAAAAAAAAAAAAAAAAAAAAAAAAAAAAAAAAAAAAAAAAAAAAAAAAAAAAAAAAAAAAAAAAAAAAAAAAAAAAAAAAAAAAAAAAAAAAAAAAAAAAAAAAAAAAAAAAAAAAAAAAAAAAAAAAAAAAAAAAAAAAAAAAAAAAAAAAAAAAAAAAAAAAAAAAAAAAAAAAAAAAAAAAAAAAAAAAAAAAAAAAAAAAAAAAAAAAAAAAAAAAAAAAAAAAAAAAAAAAAAAAAAAAAAAAAAAAAAAAAAAAAAAAAAAAAAAAAAAAAAAAAAAAAAAAAAAAAAAAAAAAAAAAAAAAAAAAAAAAAAAAAAAAAAAAAAAAAAAAAAAAAAAAAAAAAAAAAAAAAAAAAAAAAAAAAAAAAAAAAAAAAAAAAAAAAAAAAAAAAAAAAAAAAAAAAAAAAAAAAAAAAAAAAAAAAAAAAAAAAAAAAAAAAAAAAAAAAAAAAAAAAAAAAAAAAAAAAAAAAAAAAAAAAAAAAAAAAAAAAAAAAAAAAAAAAAAAAAAAAAAAAAAAAAAAAAAAAAAAAAAAAAAAAAAAAAAAAAAAAAAAAAAAAAAAAAAAAAAAAAAAAAAAAAAAAAAAAAAAAAAAAAAAAAAAAAAAAAAAAAAAAAAAAAAAAAAAAAAAAAAAAAAAAAAAAAAAAAAAAAAAAAAAAAAAAAAAAAAAAAAAAAAAAAAAAAAAAAAAAAAAAAAAAAAAAAAAAAAAAAAAAAAAAAAAAAAAAAAAAAAAAAAAAAAAAAAAAAAAAAAAAAAAAAAAAAAAAAAAAAAAAAAAAAAAAAAAAAAAAAAAAAAAAAAAAAAAAAAAAAAAAAAAAAAAAAAAAAAAAAAAAAAAAAAAAAAAAAAAAAAAAAAAAAAAAAAAAAAAAAAAAAAAAAAAAAAAAAAAAAAAAAAAAAAAAAAAAAAAAAAAAAAAAAAAAAAAAAAAAAAAAAAAAAAAAAAAAAAAAAAAAAAAAAAAAAAAAAAAAAAAAAAAAAAAAAAAAAAAAAAAAAAAAAAAAAAAAAAAAAAAAAAAAAAAAAAAAAAAAAAAAAAAAAAAAAAAAAAAAAAAAAAAAAAAAAAAAAAAAAAAAAAAAAAAAAAAAAAAAAAAAAAAAAAAAAAAAAAAAAAAAAAAAAAAAAAAAAAAAAAAAAAAAAAAAAAAAAAAAAAAAAAAAAAAAAAAAAAAAAAAAAAAAAAAAAAAAAAAAAAAAAAAAAAAAAAAAAAAAAAAAAAAAAAAAAAAAAAAAAAAAAAAAAAAAAAAAAAAAAAAAAAAAAAAAAAAAAAAAAAAAAAAAAAAAAAAAAAAAAAAAAAAAAAAAAAAAAAAAAAAAAAAAAAAAAAAAAAAAAAAAAAAAAAAAAAAAAAAAAAAAAAAAAAAAAAAAAAAAAAAAAAAAAAAAAAAAAAAAAAAAAAAAAAAAAAAAAAAAAAAAAAAAAAAAAAAAAAAAAAAAAAAAAAAAAAAAAAAAAAAAAAAAAAAAAAAAAAAAAAAAAAAAAAAAAAAAAAAAAAAAAAAAAAAAAAAAAAAAAAAAAAAAAAAAAAAAAAAAAAAAAAAAAAAAAAAAAAAAAAAAAAAAAAAAAAAAAAAAAAAAAAAAAAAAAAAAAAAAAAAAAAAAAAAAAAAAAAAAAAAAAAAAAAAAAAAAAAAAAAAAAAAAAAAAAAAAAAAAAAAAAAAAAAAAAAAAAAAAAAAAAAAAAAAAAAAAAAAAAAAAAAAAAAAAAAAAAAAAAAAAAAAAAAAAAAAAAAAAAAAAAAAAAAAAAAAAAAAAAAAAAAAAAAAAAAAAAAAAAAAAAAAAAAAAAAAAAAAAAAAAAAAAAAAAAAAAAAAAAAAAAAAAAAAAAAAAAAAAAAAAAAAAAAAAAAAAAAAAAAAAAAAAAAAAAAAAAAAAAAAAAAAAAAAAAAAAAAAAAAAAAAAAAAAAAAAAAAAAAAAAAAAAAAAAAAAAAAAAAAAAAAAAAAAAAAAAAAAAAAAAAAAAAAAAAAAAAAAAAAAAAAAAAAAAAAAAAAAAAAAAAAAAAAAAAAAAAAAAAAAAAAAAAAAAAAAAAAAAAAAAAAAAAAAAAAAAAAAAAAAAAAAAAAAAAAAAAAAAAAAAAAAAAAAAAAAAAAAAAAAAAAAAAAAAAAAAAAAAAAAAAAAAAAAAAAAAAAAAAAAAAAAAAAAAAAAAAAAAAAAAAAAAAAAAAAAAAAAAAAAAAAAAAAAAAAAAAAAAAAAAAAAAAAAAAAAAAAAAAAAAAAAAAAAAAAAAAAAAAAAAAAAAAAAAAAAAAAAAAAAAAAAAAAAAAAAAAAAAAAAAAAAAAAAAAAAAAAAAAAAAAAAAAAAAAAAAAAAAAAAAAAAAAAAAAAAAAAAAAAAAAAAAAAAAAAAAAAAAAAAAAAAAAAAAAAAAAAAAAAAAAAAAAAAAAAAAAAAAAAAAAAAAAAAAAAAAAAAAAAAAAAAAAAAAAAAAAAAAAAAAAAAAAAAAAAAAAAAAAAAAAAAAAAAAAAAAAAAAAAAAAAAAAAAAAAAAAAAAAAAAAAAAAAAAAAAAAAAAAAAAAAAAAAAAAAAAAAAAAAAAAAAAAAAAAAAAAAAAAAAAAAAAAAAAAAAAAAAAAAAAAAAAAAAAAAAAAAAAAAAAAAAAAAAAAAAAAAAAAAAAAAAAAAAAAAAAAAAAAAAAAAAAAAAAAAAAAAAAAAAAAAAAAAAAAAAAAAAAAAAAAAAAAAAAAAAAAAAAAAAAAAAAAAAAAAAAAAAAAAAAAAAAAAAAAAAAAAAAAAAAAAAAAAAAAAAAAAAAAAAAAAAAAAAAAAAAAAAAAAAAAAAAAAAAAAAAAAAAAAAAAAAAAAAAAAAAAAAAAAAAAAAAAAAAAAAAAAAAAAAAAAAAAAAAAAAAAAAAAAAAAAAAAAAAAAAAAAAAAAAAAAAAAAAAAAAAAAAAAAAAAAAAAAAAAAAAAAAAAAAAAAAAAAAAAAAAAAAAAAAAAAAAAAAAAAAAAAAAAAAAAAAAAAAAAAAAAAAAAAAAAAAAAAAAAAAAAAAAAAAAAAAAAAAAAAAAAAAAAAAAAAAAAAAAAAAAAAAAAAAAAAAAAAAAAAAAAAAAAAAAAAAAAAAAAAAAAAAAAAAAAAAAAAAAAAAAAAAAAAAAAAAAAAAAAAAAAAAAAAAAAAAAAAAAAAAAAAAAAAAAAAAAAAAAAAAAAAAAAAAAAAAAAAAAAAAAAAAAAAAAAAAAAAAAAAAAAAAAAAAAAAAAAAAAAAAAAAAAAAAAAAAAAAAAAAAAAAAAAAAAAAAAAAAAAAAAAAAAAAAAAAAAAAAAAAAAAAAAAAAAAAAAAAAAAAAAAAAAAAAAAAAAAAAAAAAAAAAAAAAAAAAAAAAAAAAAAAAAAAAAAAAAAAAAAAAAAAAAAAAAAAAAAAAAAAAAAAAAAAAAAAAAAAAAAAAAAAAAAAAAAAAAAAAAAAAAAAAAAAAAAAAAAAAAAAAAAAAAAAAAAAAAAAAAAAAAAAAAAAAAAAAAAAAAAAAAAAAAAAAAAAAAAAAAAAAAAAAAAAAAAAAAAAAAAAAAAAAAAAAAAAAAAAAAAAAAAAAAAAAAAAAAAAAAAAAAAAAAAAAAAAAAAAAAAAAAAAAAAAAAAAAAAAAAAAAAAAAAAAAAAAAAAAAAAAAAAAAAAAAAAAAAAAAAAAAAAAAAAAAAAAAAAAAAAAAAAAAAAAAAAAAAAAAAAAAAAAAAAAAAAAAAAAAAAAAAAAAAAAAAAAAAAAAAAAAAAAAAAAAAAAAAAAAAAAAAAAAAAAAAAAAAAAAAAAAAAAAAAAAAAAAAAAAAAAAAAAAAAAAAAAAAAAAAAAAAAAAAAAAAAAAAAAAAAAAAAAAAAAAAAAAAAAAAAAAAAAAAAAAAAAAAAAAAAAAAAAAAAAAAAAAAAAAAAAAAAAAAAAAAAAAAAAAAAAAAAAAAAAAAAAAAAAAAAAAAAAAAAAAAAAAAAAAAAAAAAAAAAAAAAAAAAAAAAAAAAAAAAAAAAAAAAAAAAAAAAAAAAAAAAAAAAAAAAAAAAAAAAAAAAAAAAAAAAAAAAAAAAAAAAAAAAAAAAAAAAAAAAAAAAAAAAAAAAAAAAAAAAAAAAAAAAAAAAAAAAAAAAAAAAAAAAAAAAAAAAAAAAAAAAAAAAAAAAAAAAAAAAAAAAAAAAAAAAAAAAAAAAAAAAAAAAAAAAAAAAAAAAAAAAAAAAAAAAAAAAAAAAAAAAAAAAAAAAAAAAAAAAAAAAAAAAAAAAAAAAAAAAAAAAAAAAAAAAAAAAAAAAAAAAAAAAAAAAAAAAPZYQBCF8OAGyxVwANLBiYRgQfzoeGp6AOTNYwKQiRFEpC9Koql506Xgws+iG4NBAaU+iPzLhFKqVeoG6ebl5XtsrUQ=</c2pa:manifest></metadata> <g> <path fill="#FFF1E1" d="M674.2 302.2c-4.7-6.3-11.3-10.9-20.9-14.6l-.1 0 .2 0 .2-.2c.5-.6.4-1.1.3-1.4-.2-.5-.8-.9-1.7-1.1-.8-.1-1.5.2-2.1 1-1.2-.7-2.6-1.1-4-1.4-.9-.2-1.7-.4-2.5-.7l-7.8-3-12.5-2.9c-.3-.1-.6-.2-.9-.4-.6-.3-1.3-.6-2.2-.4-.6.2-1.1.8-1.5 1.4-.2.3-.4.5-.5.6-1.2 1.1-1.8 2.7-1.7 4.6.1 2.4 1.5 4.8 3.4 6.2.2.8-.6 2.2-1.3 3-.9 1-2 .9-3.9.6-1.6-.2-3.3-.5-5 .4-1.5.8-2.3.3-3-.2-.4-.3-.9-.6-1.4-.4-.5.1-.8.6-.9 1l-.2.5.5.2c.1 0 .3.1.4.1.5.1.9.3 1 .5-5.6.1-9.9 1.3-14.1 3.9-1.4-1.3-1.6-3-1.8-4.6 0-.3-.1-.6-.1-.9-.4-3.1-3-3.7-5-4.2-.4-.1-.8-.2-1.1-.3-5.7-1.7-10.3-2.9-16.1-2 2.2-2.3 5.3-3.9 8-5.3 1.1-.6 2.2-1.1 3.2-1.7l6.4-3.9c1.1-.7 2.2-1 3.4-1.3 1.1-.3 2.3-.6 3.4-1.3l7-4.5c.4-.3.8-.5 1.1-.8.7-.5 1.1-.8 2.2-1.1 1.8-.5 2.4-2.7 2.8-4.4.2-.7.4-1.3.5-1.7 1.8-3.6 2.5-6.6.7-10.8l-.2-5-.4 0c-2.6-.1-4.2-.9-5.7-1.5-1.8-.8-3.4-1.5-6-.9l-14.9 3.5c.4-2.5 1.7-4.1 3.1-5.8.5-.6 1-1.2 1.4-1.8.7-1 1.2-2.2 1.8-3.3.9-1.9 1.7-3.8 3.5-5.1.2-.1.5-.3.9-.4.6-.2 1.1-.4 1.4-.7.3-.4 0-1-.2-1.5-.1-.2-.3-.7-.3-.8l4.1-9.7.3-8.6-.8-3c.3-2.3-.2-3.6-1.6-5-1-.9-2.4-1.1-4.1-1.2-.2-3.2.7-6 1.7-9 .2-.5.4-1.1.5-1.7 1.7-5.3 1.7-10.5 1.8-16l0-1.4c0-2.6-.3-3.5-1.3-5.8-.1-.2-.2-.4-.2-.6-.6-1.5-1.4-3.3-4.1-3-.7.1-1.1-.5-1.7-1.3-.4-.5-.7-1-1.2-1.2-3-1.5-5.7-.4-8.4.7-1.5.6-3 1.2-4.4 1.2l-.2 0-.1.2c-1.9 2.3-4.2 3.9-6.4 5.5-2.7 2-5.6 4.1-7.7 7.3l-.1.1 0 .1c-.1 1.8-1.3 2.8-2.6 3.9-.7.6-1.5 1.2-2 2-.6.9-1 2.1-1.5 3.2-.3.8-.6 1.6-.9 2.3l-8.1 16.3-3.1 9.6c-.3-.3-.6-.4-.9-.4-.7 0-1.1.7-1.1 1.6-.5 1.2-.3 2.1 0 2.4.2.2.5.3.7.2.2-.1.5-.3.5-.9 0-.1.1-.3.3-.4 0 0 0 0 0 0l0 .1-1.7 9c-.2.8-.5 1.5-.9 2.1-.6 1.1-1.2 2.2-1 4.1.5 4.8-.5 7.5-1.4 10-.7 1.8-1.3 3.7-1.5 6.3-3.8-1.8-7.3-3-11.9-1.7l2.1-2.9c2-2.8 1.7-5.1 1.3-7.8-.1-.4-.1-.9-.2-1.4-.1-.5 0-1 0-1.3.1-1.2 0-1.9-1.5-3.3-.5-.4-1-1-1.5-1.5-1.8-1.9-4-4.3-6.9-3.5l-10.7 3c-.6-.8-.2-1.8.4-3.2.4-.8.7-1.5.6-2.2-.3-2.3.5-3.9 1.4-5.8.3-.7.6-1.4.9-2.1 1.5-4 1.6-9.6.3-15-1-3.9-3.6-6.8-6.2-9.6l-.7-.7c-1.1-1-3.8-1.3-4.7-1.4l-.2 0c-1.5.6-3.2.6-4.8.5-.5 0-1 0-1.4 0l-.2 0-5.4 4-5 .6-.1.3c-.4 1.5-1.5 2.1-2.7 2.8-.4.2-.9.5-1.3.8-4.4 3.2-6.6 7.8-8.8 12.2-.3.5-.5 1-.8 1.6-.4-.7-.8-1.1-1.3-1.3-1-.4-2 0-2.9.5-1.1.5-2.2 1-3.4.5-.9-.4-1.5-1.3-2.1-2.1-.3-.4-.6-.8-.9-1.2l-.2-.2-.2 0c-1.9.1-3.5 1.2-5 2.3-1.1.8-2.2 1.6-3.3 1.9-.4.1-.8.2-1.2.2-1 .1-2.1.2-2.6 1.4-.5 1.3-.4 2.5.4 3.4l.6.7c-1.8 3-2.8 6.2-3.7 9.5l-1.9 6.4c-.2 0-.5 0-.7 0-2.8-.2-3.4-2.1-4.2-4.4-.6-1.6-1.1-3.3-2.5-4.5-.9-.8-2.3-.6-3.5-.5-.9.1-1.8.2-2.1-.1-.4-.3-.6-.5-.7-.8-.1-.6.5-1.4 1-2 .5-.6.9-1.1.9-1.7l.6-6.8c0-.5.1-.9.1-1.4.2-2.1.5-4.3-.3-6.2l-.2-.5c-.5-1.3-.9-2.2-.7-3.8 2.2.7 4.2.2 6.2-.2.7-.2 1.4-.3 2.1-.5l10.7-1.7c3.2-.5 5.5-2.6 7.6-4.4 1.6-1.4 3.1-2.7 4.7-3l.4-.1.5-6.5-5 .9 3-.8-1.5-.6c-2.1-.8-4.2-.5-5.6.9l-.5.5 1.6.8-10.1 4.3-7 .5-8.4 3.2-4.5 2.2-4.3 3.4c-.7-.8-1.3-1.7-1.7-2.5.5-.4.9-1 .9-1.5.1-.3 0-.6-.1-.7-.2-.3-.6-.3-1-.4-.1 0-.2 0-.4-.1.2-.1.5-.2.8-.3 1.3-.5 2.7-1 3.5-2.3.9-1.4 1.3-5.8-.3-7-4.3-3.2-5.3-5.5-7.1-11.2l-.1-.2-.1-.1c-.3-.2-.7-.4-1.2-.6-1.5-.8-2.6-1.4-2.5-2.8.3-3.7 1-6.8 2.2-9.2.7 1.2 1.3 1.7 2.6 1.9l.8.1-.2-.7c-.9-3.2 2.6-9.1 5.4-10.3l.4-.2-.1-.4c-.9-3.3 3.1-5.8 4-6.3.1.1.4.4.7.9l.8 1.3.1-1.5c.3-4.1 4.3-5.4 8.1-6.7 1.3-.4 2.4-.8 3.5-1.3 2.9-1.4 6.6-2.8 10.1-2.2l-3.4 1.1 1.1.6c2.5 1.3 3.4 3.2 2.9 5.9l-.1.5.5.1c.1 0 .2 0 .3 0 1.9.2 3.5-.4 4.5-1.5 1.5-1.7.2-4.6-.4-5.8-.1-.2-.2-.3-.2-.4l-.5.1.2-.4c0 0 0 0 0 0l-.3-.1-.1.1c-.1 0-.2 0-.3 0-.5 0-.9-.1-1-.4 5.2.3 12.9 2.4 14.2 2.8l.9 2.5c.5.8 1 1.7 1.4 2.5 2.4 4.2 4.7 8.1 5.4 12.8 1.2 7.9-2.5 14.3-6.7 20.7-.3.5-.5 1.1-.7 1.7-.3 1.1-.7 2.2-2.3 3.2l-1.7 1 2-.1c7.8-.4 13.2-3.9 16-10.4 4.8-11.1 4.3-19.9-1.4-25.4.6-3.2-.5-4.4-2.2-6.1-1-1.1-2.4-2.4-3.6-4.8-1.7-3.2-5.1-4.7-8.2-6-.8-.3-1.6-.7-2.3-1l-.7-.3c-3.1-1.5-5.8-2.8-9.5-3.1l-.3 0c-5.9-.5-11.9.2-18.8 2.3-7 2.1-12.1 7.2-17 12.2l-4.4 4.5c-1.1 1.1-1.6 2.9-2 4.9-.4 1.9-.9 3.9-2.1 6.1-.2-.3-.4-.4-.7-.5-.4-.1-.7 0-1 .3-.3.3-.4.7-.3 1.2-2.2 3.3-.9 5.3.2 7.1.9 1.5 1.8 2.7 1 4.8-3.7-2.7-7.3-3.7-10.6-3-.5.1-1.1.2-1.8.2-1.4.1-2.8.3-3.7.8-.9.5-1.8 1.1-2.6 1.7-1.7 1.2-3.3 2.3-5.4 2.8-1.8.4-3 1.6-4.1 2.9-.8-2.7-1.4-5.2-.5-7.4l2.6-5.9c.9-1.9 2.1-4.3 3.4-6.7 1.9-3.5 3.6-6.8 3.9-8.5 1.9-10.8 3-13.2 12.4-18.3 1.2-.7 2.4-1.2 3.6-1.7 2.4-1 4.9-2 6.9-4.2 2.3.4 4 .3 5-.3 1.5-.9 1.5-2.7 1.5-4.2 0-.8 0-1.6.2-2.1l3.9-9.4c.8-1.9.5-4 .3-6.2-.2-1.3-.3-2.7-.3-4 .3-5.9-2.9-13.4-9.3-15.7-3.7-1.3-7.6-.4-11.5.5-1.1.2-2.1.5-3.1.7l-1.6.3 4.7 2c.3.1.5 1.1.7 1.9.3 1.4.7 3.1 2 3.7 1.1.5 2.2-.4 3-1l.1-.1c2.2.7 3.7 1.8 4.6 3.4 2.2 4.1.1 10.9-2 17.6l-.1.3c-.5 1.6-1.5 2.3-2.6 3.1-.4.3-.9.7-1.4 1.1-.5.4-.9.9-1.3 1.3-1.1 1.1-2.2 2.3-3.9 2.9-8.3 2.5-14.5 7.7-18 15.3-.4.9-1.2 1.9-1.9 2.8-.9 1.2-1.8 2.3-2.1 3.5-.3 1-.4 2-.5 3-.1 1.6-.3 3.2-1.3 4.6-1.2 1.8-1.5 3.8-1.8 6.1-.4 2.6-.8 5.8-2.7 9.9-1.7 3.5-1.4 6.2-.3 9.9.1.4.2.8.3 1.1.3 1.4.5 2.6 2.7 3.2 1.4.4 2.6.1 3.5-.9.8 2.6 2.3 2.4 3.9 2.2 1.2-.1 2.5-.3 4 .6l.2.1.2-.1c4-2.2 7.9-3 11.3-2.3 2.9.5 4.4 2.8 4 5.8-1.1 7.3-2.5 11.2-8 16l-.3.3.2.4c.7 1.2 0 2.9-.9 4.7-1.2 2.6-2.6 5.6.6 7.7 2.4 1.6 4.6.7 6.5-.4l4.1-2.5c1.3-.8 2.2-1.4 3.9-1.2.1 0 .2 0 .3 0l.8.1-.3-1c-.2-.6-.5-1.5-.4-1.7.3-.4 3.2-2.3 5-2.2l0 0c.3 0 .7.5 1.1.9.4.4.9.9 1.4 1.1l.7.3c1.6.7 2.9 1.3 3.8 2.6.6.8.6 1.7.5 2.7 0 .6 0 1.2 0 1.9.4 3.5-4.4 13.2-8.4 16.9l-.2.2 0 .2c.3 3.3-3.3 5.1-7.5 7.1-.9.4-1.8.9-2.7 1.3-.9.5-1.8 1-2.6 1.6-1.7 1.1-3.4 2.2-5.5 2.5l-.4.1-.1.4c-.3 2.4-1.3 4.3-2.4 6.3-1 1.9-2 3.8-2.5 6.2l-1.4-4.8-.1 2.9c-.1 2.9-.2 5.2.6 7.6l.6 1.8.4-1.8c.1-.5.1-.9.1-1.3 0-.1 0-.3 0-.4l.4 1.2 0-.2c.1.3.2.7.4.9 3.4 3.8 8.9 4.8 13.2 2.3l.1-.1.1-.2c.1-.3.2-.7.4-1.1.4-1.2.7-2.2 1.5-2.5.6 2.7-.5 4.6-1.9 7l-.1.2c-.7 1.2-1.2 2.7-1.7 4.2-.8 2.5-1.7 5.1-3.6 6.6-.6.4-1.1.8-1.7 1.1-1.7 1-3.5 2-3.8 5l-2.9 4.5-.1.2c-.3 2.5-1.4 4.7-2.4 6.9-.9 2-1.8 3.8-2.2 5.9-.8 4.3-.1 9.2.6 13.5l1.3 8.7 0 .1.1.1c.2.3.6.7.9 1.1.7.8 1.6 1.7 1.9 2.6 2.3 5.6 9.7 12.5 12.3 12.1.1 0 .2 0 .3 0 .5-.1 1.3-.1 1.7-.7.3-.3.4-.8.3-1.4 0-.4.2-1.2.3-1.3.1.1.3.5.6 1.9l.1.5.5-.1c1.9-.3 1.7-2 1.6-2.9 0-.2 0-.4-.1-.5-.1-1.1-.7-1.6-1.3-2-.3-.2-.6-.5-.9-.8l-5.6-7.8c-4.7-6.6-6.2-22.1-.9-33.8l3.9-1.4 0-.3c.4-2.5 2.3-3.5 4.4-4.5.7-.3 1.4-.7 2-1.1 5.6-3.7 14.7-5.5 21.2-4.2 2.8.6 3 1.8 3.3 2.8.1.6.3 1.3.9 1.6.6.3 1.8.2 2.5-.2l5.2-2.9c2.5 1.5 4.1 4.5 5.3 6.9 1 1.8 1.8 3.4 2.9 4.1 1.8 1.1 2.5 2.5 3.4 4.4l.4.7c5 9.6 5.6 18 1.8 25.1l-3.1 5.9-8.9 7.7c-.1-.3-.2-.5-.2-.7 0-.2-.2-.8-.7-.8-1.8.1-3.4 1.7-3.6 2.4-.1.5.1.7.2.8l.6.4c-2.1 1.1-3.3 2.6-4.4 4.1l0 0c-.8-.2-1.7.2-2.4.5-.4.2-.7.3-1 .3l-16.2.9-.3 0-.1.3c-.3.7-.3 1.4 0 1.9.6 1.1 2.2 1.5 4.5 2.1 3.6.9 8.5 2.2 12.4 6.8l3.7 4.4c6.1 7.2 5.5 24.1-1 30.1-3.2 3-5.1 5.9-7.2 9.4l-.3.5c-1.8 2.9-4.8 5.8-7.5 8.3l-1 1c-1.7 1.6-6.5 1.3-11.2.9-3-.2-6-.4-8.5-.2l-14.5 1.4c-5.7 1.6-11.6 1.1-17.4-1.4l-.2-.1-.2 0c-.8.2-1.6.4-2.5.6-5.5 1.4-10.8 2.7-16.4 2.3l-.2 0c-2.5.8-4.9.7-7.6.7-.8 0-1.5 0-2.3 0l-15.3.2-29.2-.5c-3.4-.1-6.7-.8-11-.3.3-1.2.8-1.9 1.5-2.7.4-.5.9-1.1 1.3-1.8l.1-.1-.1-1.2c-.2-3.2-.5-7.2 1.3-9.5 1.8-2.3 1.5-4.6 1.1-6.9-.1-.4-.1-.8-.2-1.2.8-1.4 1.6-2.8 2.5-4.2 1.5-2.4 3-5 4.2-7.5.3-.4.5-.9.8-1.3 2-3.4 3.9-6.7 7.9-7.9l.2-.1.1-.2c2.7-5.4 6.7-10.1 10.5-14.6 2 1 2.9 2.7 2.9 6 0 1 .8 2 1.6 3.1 1.2 1.6 2.5 3.2 1.6 4.8-.1.2-.4.5-.8.7-.4.3-.8.6-1.2 1l-5.2 5.9c-1.8 1-2 2-2.3 3.1-.1.5-.3 1-.6 1.6l-7.9 13.1-2.9 5.8c-.1.2-.3.5-.4.7-.6 1-1.3 2.2-.8 4.4l.1.5.5-.1c3.6-1 5.3-3.3 6.7-5.1.9-1.2 1.6-2.1 2.5-2.3 3.7-.9 4.6-3.1 5.7-5.5.9-2.1 1.9-4.5 4.9-6.8 1.6 1.1 3 1.8 5.1 1.7l.5 0 0-1.2c0-.4 0-.9-.1-1.4l.5 1.7 4.3 7.4c-.1.3-.8.9-1.1 1.2-.4.4-.8.7-1 1l-5.3 8.8c-1 1.6-.8 3.8-.6 5.6l.1 1.1.6-.2c4.1-1.1 7-4.2 9.4-6.7 2.9-3 4.4-4.5 6.3-3 .2.2.2.7.2 1.6-.1 1.9-.4 5.1 3 9.3l.5.6.4-.6c2.3-3.9 5.5-5 9.6-6.1l.6-.1-.2-.5c-1.1-2.4.9-4.8 3.1-7.3 1.1-1.3 2.2-2.5 2.9-3.9 1.3-2.3 2.2-3.8 3.8-5.7 6.2-7.3 12.4-14.5 19.7-21.3.8-.8 1.6-1.6 2.4-2.3 3.1-3 6-5.9 10.6-7.5l12.6-6.4c.8-.4 1.6-.7 2.4-1 1.8-.7 3.6-1.4 5.1-3.1l.3-.4-.4-.3c-3.2-3-12.4-3.1-16.5-1.5-1 .4-2.1.7-3.1 1.1-3.4 1.2-6.9 2.4-10 4.6l-5.9 2.3c-.8.3-1.5.6-2.2.8-1.7.6-3.2 1.1-4.7 2-1.2.7-2.3 1.8-3.4 2.8-1.6 1.5-3.2 3-5.4 3.7l-2.5-2.3c-.4-.4-.8-.6-1.2-.9-.7-.4-1-.6-1.1-1.2-.1-.7.2-1.1.9-1.7.2-.2.5-.5.7-.7l9.9-11.8c2.2-2.7 3.2-6.1 2.8-9.5-.5-3.7-2.5-7-5.6-9.1l-.2-.1-.2.1c-3.3 1.1-7.8.6-9.2-.3-.2-.1-.3-.3-.3-.3-.1-1.6 4.6-11.7 8.8-16 4.4-4.5 5.9-10.5 7.4-16.2.1-.3.4-.8.7-1.2.5-.7 1.1-1.4.7-2.1l-1.3-2.1c-.4-2.7-.9-5.2-2.1-8.1-1.8-4.5-6.9-6.1-11.3-5.8-1.2.1-2.3-.3-3-1.1-.8-.8-1.1-1.9-.9-3.1.1-.5.2-.9.3-1.4.2-.8.4-1.7.3-2.6l0-.3-.3-.1c-.9-.3-1.7-1.2-1.8-1.8 0-.2.4-.6.6-.9.3-.4.6-.7.7-1.1.6-2-.7-3.2-1.9-4.2-.3-.2-.5-.5-.8-.7-.8-.8-.9-4.1-.2-5 1-1.2 1.6-2.4 1.6-4.1-.1-1.6-1.7-2.8-2.6-3.5-.1-1 .7-1.3 2.4-1.6.9-.2 1.7-.4 2.1-.8.3-.3.6-.6.9-.9 1.3-1.3 2.9-2.9 4.4-3.8 5.9-3.5 7.8-9.6 9-15.1l.3-1.3c1.1-5.1 2.2-10.3.5-15.1-2-5.6-6.2-8.9-12.1-9.5.1-.2.3-.4.4-.4 0 0 .1.1.2.1.4.3 1.3.8 2.3-.1l.9-.8-6.8-.7-4.4-3c.6-1.8.8-3.4 1-5.2.1-.9.2-1.8.4-2.8l1.1-6c.8.1 1.5.1 2.2-.6l.4-.3-.3-.4c-2-2.3-2.1-4.1-1.6-6.3l6.1-26.4c.3-1.2.6-2.5.8-3.8.9-4 1.7-8.2 3.4-11.9l.2-.4-.3-.2c-1.3-.9-1.5-1.8-.8-3.8l1.4-4c2.3-2.3 3.5-4.4 4.4-7.5.3-1 .6-2 1-3 1-2.9 2-5.8 1.9-8.8l0-.2-.2-.1c-.3-.3-.7-.4-1.2-.4-1.2.1-2.4 1.2-2.9 2l-3.7 5-5.3 13.3c-.5 1.2-.9 2.5-1.2 3.7-.9 3.1-1.8 6.1-4.2 8.3l-.2.2 0 .3c.3 2-.2 4-.9 6l-3 9.7c-1.3 0-2.2.6-2.5 1.8-.2.6-.1 1.1.2 1.4.3.4.8.6 1.6.7l-3.6 14.9c-.2-.2-.3-.6-.5-1.1l-.2-.7-.5.4c-.7.5-1.1 1.2-1.2 1.9-.1.7.1 1.5.7 2.2l.8 1 .1-.8c.2 1.9-.3 3.6-.9 5.3-.3.8-.6 1.7-.7 2.6-.2 1.1-.3 2.3-.4 3.4-.1 1.8-.2 3.6-.9 5.3-.4 1-.3 2.2-.2 3.8.2 2.3.5 5.3-.8 9.3-1.9.5-2.5 1.7-3 2.7-.2.4-.4.9-.8 1.3l-8.9 11.8-.7-.5c.1-.8.2-2-.1-2.9l-.1-.2-2.6-1.4c-1.1-2.3-.3-6.5.7-11.4.6-3.1 1.3-6.6 1.6-10 0 0 0 0 0 0 0 .6.1 1.3.3 2l.4 1.7.6-1.7c.8-2.3 1.2-4.4.7-7l-.2-1.2-.7 1c-.1.2-.2.3-.3.5-.1.3-.2.5-.6.7-.1-2.5-.9-4.6-1.7-6.7-.4-1-.8-2-1.1-3l-.1-.2c-.6-2.1-.8-2.7-2.8-4.1-.7-.5-1.4-1-2-1.4-3-2.2-5.2-3.9-11-3.4-.8.1-1.7-.1-2.6-.2-1.7-.3-3.6-.6-5.4.4l-.4.2.2.4c2.7 5.8 6.5 7.3 9.7 8.5 1.7.7 3.2 1.2 4.1 2.4 3.2 4.2 3 9.7 2.6 14.9l-.9 10.9c-.4 4.9-.5 9 2 13.2.6 1 2.1 2.8 3.7 2.7 2.4-.1 4.1-1.6 5.6-2.9.1-.1.3-.3.4-.4l.1.1c-.1.4-.1.8.1 1 .3.4.7.5 1.2.3 6.6-.9 9.3-3.4 10.9-5 .5-.5.9-.8 1.2-.9l12.4-4.3c2.7-.9 4.9-.8 6.4.4 4.1 3.2 1.6 9.4-.4 14.4-.4 1-.7 1.9-1 2.7-1.5 4.1-4.3 6.7-9.4 8.6l-7.4 6c-6.5 1.8-10.6 4.8-13.8 10.2-.2.4-.5.8-.7 1.2-1.5 2.5-3.4 5.6-3.8 8.4-.8 5.3-1.6 10.4-3.6 15.9-.4 1.1-.2 2.6.5 3.9.6 1.1 1.5 1.8 2.3 2 2.2.5 4.9-.3 5.8-2.5l2.5-6.6c.2-.6.5-1.1.7-1.7.9-2.1 1.8-4.2 1.2-7 0-.1.2-.4.3-.4l1.5-.1.1-.3c.3-.8.6-1.5.9-2.2 1.4-3.8 2.3-6.1 5.6-5.9l.2 0 .2-.1c.6-.5.8-1.2 1-1.6 0-.2.1-.3.1-.4 0-.1.3-.2.7-.3.4 0 .7 0 .8.2l5.6 4.6c.9.7-.1 3.2-1.1 5.8-1.3 3.3-2.8 7.1-1.8 10.1l2.9 8.5.1.2 4.7 2.9.2-.1c1.6-.5 3.2-.5 4.6-.1-.4.1-.8.1-1.2.1-.2 0-.4 0-.6 0l-.7.1.2.6c.8 2.2 2.2 3.1 4.3 4.1-.1.6.2 1.1.6 1.4.4.2.9.1 1.2-.2l.1-.1c-.1 4.1-1.9 8.6-4.5 10.4l-.2.2 0 .3c.2 3.5-.9 6.1-3.9 9.1-4.5 4.6-7.7 12-7.9 18.2-.1 2.6 2.1 4.4 3.9 6 .8.7 1.6 1.3 2 1.9.6.8.2 1.6-.3 2.7-.3.6-.6 1.2-.5 1.8l3.2 8.2-3.7 5.6 0 .1c-.1 2.1-.4 3.7-2.2 4.5-1.6.7-1.8 1.7-1.9 2.6-.1.4-.1.7-.3 1-1.9 4.6-1 8.5 2.5 10.7l.2.1.2-.1c.3-.1.4-.1.5 0 .1.1.1.2 0 .3-.1.1-.2.2-.6.1l-.2 0-5 3.9c-1.6.6-2.2 1.6-2.8 2.5-.3.4-.6.8-1 1.3l-4.7 5.1-.9-6.5c-1.3-4-1.9-8-2-11.8l0-.2-.2-.1c-1.2-.9-1.8-1.8-1.8-2.5 0-.5.3-1 .6-1.5.3-.5.6-1.1.7-1.9l.8-3.8-2.3 3.8-.6.8c-.4.5-.6 1.1-.9 1.6-.5 1.1-1 2-2.1 2.5-.1-2.4 1-4.2 3.3-6.1l.7-.5-.8-.3c-2.1-.9-3.6-2.1-4.7-4-1-1.6-.7-2.8-.4-4.3.2-.8.4-1.6.4-2.6-.1-5.9.9-11.5 3.2-18.2l3.3-9.5.3-.1c1-.5 2.1-1 2.4-2.1.5-1.7.1-2.4-.6-3.5l-.3-.4c-.5-.8 0-1.6.7-2.8.4-.6.8-1.2.9-1.8.2-1.4.8-2.4 1.5-3.5.3-.5.7-1 .9-1.6.8-1.7 1-6.9-.2-9.4-.5-1-1.1-1.5-1.9-1.7l-.1 0-.1 0c-2.9.6-4.7 3.6-5.7 5.9l-2.5 5.5c-1.2 5.2-3.2 9.6-5.7 14.8-.4.9-.8 1.8-1.1 2.6-.9 2.2-1.8 4.4-3.6 6.6-.7-1.1-.9-2.6-1.1-4.2-.1-.9-.3-1.9-.5-2.8-.5-1.7-1.1-3.3-1.7-4.9-1.1-2.7-2.1-5.3-2.3-8.4-.3-4.3-4.3-7.5-8.1-8.4l1.1-8.6c.3-2.4.6-4.7.8-7.2.7.9.4 2.1-.2 3.8l-.2.5.1.2c.5.8 1.2.9 1.6.6.5-.3.7-1 .4-1.6.6-3 .4-5.9.1-8.8-.1-1.2-.2-2.5-.2-3.8 0-.4-.1-.7-.4-.9-.3-.2-.6-.1-.9 0-.3.2-.4.5-.4.9l.2 2.8-1-10.3-1-5.9-1-7.5-5.7-9.9c-2.1-3.5-8-7.5-12.1-5.5l1.2-5.5c.4-1.8-.2-3.6-.8-5.4-.3-1-.6-1.8-.8-2.7-2.5-15.2-3.7-20.6-11.4-34.5l-6.8-12.1c-.3-.5-.4-1-.3-1.3.2-.8 1.3-1.4 2.6-2.1 2-1.1 4.6-2.6 5.7-5.6 1.7-4.5-1.3-15.3-4.6-18.9-4.4-4.8-11-6.7-16.3-8.2-4.5-1.3-8.9-6-7.8-10.7 1-4.2 4.7-6.7 11.3-7.6l6.9-3 .1-.2c.2-.4.5-.8.7-1.2 1.1-1.8 2.4-4.2 2.5-6.1.2-6.8-1.9-12.1-3.5-16.4-1.6-4-2.8-7.2-1.4-9.6 3.5-6 9.9-10.1 16.8-10.8.7-.1 1.3.1 1.7.5 1.6 1.4 1.8 5.6 2 9.6.2 5.1.4 10.5 3.7 11.1.6.1 1.3-.4 2-.8.1-.1.2-.1.3-.2.1.2.1.3.1.5-.1.6-.7 1.3-1.6 1.5l-.8.2.6.6c4.1 4.5 8.4 3.7 12.3 2.9 2.9-.6 5.6-1.1 8.1.5 1.6 1 2.2 2.7 2.1 5.9l.1.2c.2.3 0 .6-.2.7-.2.1-.4 0-.5-.2.1-.6 0-1.3-.4-1.7-.2-.3-.5-.4-.8-.4-.3 0-.7.2-.9.6-.2.2-.3.7-.1 1.2 0 .1 0 .2 0 .2 0 .4.1 1.2 1.1 1.3.1 0 .1 0 .2 0 2.1.2 2.4 1.8 2.6 4.8.2 2.3.5 5.2 2.3 7.6l.1.1 5.6 1.3 0-.7c-.1-1-.2-2-.3-2.9-.2-1.9-.4-3.6 0-5.4 1.6-6.5.7-13-2.2-17.6-2.1-3.2-5.1-5.3-8.7-6-3.6-.7-6.7.3-9.1 1-1.9.6-3.5 1.1-4.5.5-.7-.4-1.3-1.2-1.7-2.7-.2-.8.1-1.4.6-2.4.8-1.6 1.9-3.7.9-7.6l-.1-.3-.3-.1c-.3-.1-1 .1-1.2.8l0 .1 0 .1c0 .2.1.4.2.6.2.8.4 1.5 0 2-.3-5.4-1.2-10-4-14.4l-4.1-2.7-.1 0c-10.4.1-19.8 3.9-25.8 10.6-8.8 9.8-5.6 17.7-2.8 24.7 1.4 3.4 2.7 6.7 2.6 10 0 1.7-2.2 2.2-5.8 2.8-2.9.5-6.2 1-8.6 2.8-8.6 6.4-8.6 13.5-5.8 23.5l7 8.2.1.1 1.2.2c12.3 2.4 17 3.3 19.7 15.5-2.8.7-4.4 2-5.7 4.5l-6.5-4.9c-3.4-2.5-7.8-3.9-12.5-3.7-1.8 0-2.4-.7-3.2-1.9-.2-.3-.4-.6-.6-.8-.3-.4-.8-.7-1.4-1-1.3-.7-2.1-1.3-1.8-2.3 0-.1.1-.2.2-.4.3-.4.6-1.1 0-2.1-.4-.6-.7-1.2-1.1-1.9-.8-1.6-1.7-3.3-3.1-4.6-11.2-10.4-20.2-13.3-35-15.5l-10.3-1.6c-1.1-.2-2.2-.8-3.2-1.3-.6-.3-1.2-.7-1.8-.8l-.1 0-.1 0c-2.9 0-5.7-.6-8.4-1.2-3.4-.7-6.8-1.5-10.6-1.1-9.6.9-17.2 10.6-20.8 18.7-1.4 3.1-2 7.3-2.6 11.3-.9 6.1-1.8 12.5-5.5 15.1-3.7 2.7-6.2 5.1-8.4 8l-3.7 5c-.9 1.3-2.5 4.6-2.7 6.4-.1 1.7-.4 3.3-.8 4.8-.3 1.4-.6 2.8-.7 4.3l-1 10.6c-.2 2.2-.1 4.3 0 6.3.1 2.5.2 4.9-.2 7.4l0 .2.1.2c1.1 2 1.6 3.9 1.3 5.8-.5 4 .6 8.1 1.6 11.9.3 1.1.6 2.2.9 3.3.3 1.2 0 2.1-.4 3.3-.1.4-.2.7-.4 1.1-.1.3-.1.7.3 1.3.6.8 1.8 1.6 2.6 1.7l.7.1-.2-.7c-.3-1.1-.9-1.7-1.2-2 0-.1.1-.2.2-.3.1-.1.1-.1.2 0l3.9 7.8c.2.4.4.7.6 1 .7 1.2 1.3 2.2.5 3.5-.7 1.2-1.1 3.1-.3 4.2.4.5 1.3.7 2.2.9.3.1.7.1.9.2.6.5 1.1.5 1.4.4.3-.1.5-.3.6-.5l3 4.5c-6 6.1-7.6 14.3-4.3 22.1-2.9-.3-5-1.4-6.8-2.3-1.3-.7-2.5-1.3-3.7-1.4-.1 0-.1 0-.2 0-2.4-.2-5.1-1.3-5.8-3.8l-.1-.2c-1-.9-1.5-.7-1.7-.5-.2.2-.4.5 0 1.2-3.1.2-6.6-.4-9.5-.9-1.7-.3-3.2-.5-4.2-.5-.9 0-1.8.1-2.9.2-1.7.2-3.5.4-5.1 0l-.2-.1-.2.1c-.9.5-2.3.9-3.6 1.3-.8.2-1.5.4-2.2.7-13.5 4.8-23.1 18.9-21.7 32.2.1.9-.3 1.1-.7 1.4-.3.2-.6.4-.7.8-.1.3 0 .6.2 1l1.2 1.9c.3.5 1 .4 1.5.4.1 0 .3 0 .4 0 1.7 2.9 3.5 6.1 4.8 9.6l0 .1 4.2 3.2.2.1c.3.1.7 0 1.1 0 .3 0 1-.1 1.1 0 .1.1.2.2.3.3.4.5.9.9 1.1 1.8-.1 0-.2 0-.3 0-1.3.1-3.1.2-4.1 1.2-.5.7-1.9 2.6-2.8 2.1-3-1.9-4.5-1-6.7.2-5.9 3.3-7.6 6.7-9 9.6-.3.6-.6 1.3-1 1.9-.3.6-.6 1.1-.9 1.6-1.8 3.1-3.4 6-4.3 9.8-.3 1.4-.2 2.8-.1 4.2.1.9.1 1.7.1 2.6-.1 1.7.3 2.6.7 3.7.1.3.3.7.4 1.1.4 1.1.7 2.1 1.1 3.2 1.6 4.5 3 8.7 5.2 13.1l12.4 25.3c.7 1.3 1.6 2.6 2.5 3.8 1.5 2 2.8 3.8 3.1 6 .1.4 0 .8 0 1.2 0 1.2-.1 2.4 1.8 3.4 4.1 2.3 6.9 6.7 7 11.1l0 .3.3.1c5 1.7 7.3 6.8 8.5 9.2.4.9.6 1.3.9 1.5l4.9 4.4.2.4c1.8 3 3.6 6.1 6.8 8 2.5 1.5 3.8 4.2 4.7 6.6l.1.2 3.9 1.8c-.2 2.6 1.9 3.7 3.4 4.5.7.4 1.3.7 1.6 1.1 1.8 2.4 3.5 3.6 5.4 4.9.6.4 1.3.9 2 1.4 2.1 1.6 4.2 3.3 6.2 5 4.4 3.6 9 7.3 14.1 10.3l16.2 9.4c.8.5 1.7.7 2.5.9 1.1.3 2.2.6 3.1 1.4 1.6 1.5 3.7 1.5 5.7 1.6.8 0 1.6.1 2.4.2l7.3 1.1.2-.3c.3-.5.4-1.2.2-1.7-.2-.4-.5-.6-1.1-.7l0 0c-1.3.1-1.7-.5-2.1-1.3-.1-.2-.2-.4-.4-.6-1.3-1.9-3.1-3.1-4.7-4.2-1.9-1.3-3.4-2.3-3.6-4l0-.4-.4-.1c-6.1-1.1-10.7-4-14.8-7l-9.7-7c-1.1-.8-2.4-1.3-3.4-1.7-.5-.2-1.1-.4-1.3-.6.1-.1.3-.3.7-.5.6-.3.9-.9.8-1.5-.1-.5-.4-.9-.8-1.1-.5-.2-1.3-.2-1.9-.2-1.4.1-2.9-1.3-4.5-2.7-1.4-1.3-2.9-2.6-4.5-3l-2.1-.5c0 0-.1-.1-.2-.3 0-.2 0-.5.2-.9l.2-.3-.3-.3c-1.6-1.9-3.6-3.5-5.4-5.1-1.8-1.6-3.8-3.2-5.4-5.1l-5.1-5.9c-.4-.4-.7-.9-1-1.3-.9-1.2-1.9-2.5-3.5-3.2.2-.1.4-.1.7-.1.4 0 .9-.1 1.3-.5.7-.7.2-1.3-.1-1.6l-.1-.1c-1-1-2.1-1.6-3.7-.7-15.3-17.1-27.4-35.8-35.9-55.5l-5.7-13.3c-.4-1 .1-3.9.8-4.7 2.4-2 5.7-.2 9.5 1.8 1.6.9 3.3 1.8 5 2.5l18.1 7.1c24.1 8.4 46.7 14.3 69.1 18.2 1.3 1.7 2.7 1.7 4.5 1.7l.2 0c3.6-.1 7.2.7 10.7 1.4 2 .4 4.1.8 6.1 1.1l29.2 3.9c18.2 2.4 36.8 4 57 4.9l.2 0c.2-.1.4 0 .4 0 0 0-.1.1-.4.1l-2.5 0c-.4 0-.7.2-.9.5-.1.3-.1.7.1.9.2.2.5.3.9.3 3.3.8 6.3.8 9.1-.2l2.4-.8-7.4-.4.1-.1 39 1.3c2.7.1 3.9.1 6.3 1.2 2.5 1.1 5.7.6 9.6 0 2.5-.4 5-.8 7.6-.8l14 .1.2-.1c.2-.1.4-.1.5 0 0 0-.1.1-.4.1l0 0-.2 0c-1.2.3-2.1.7-2.8 1.1l-.5.3.4.4c2 2.1 3.6 2.4 6.3 1.2 1-.5 2.2-1.2 2.8-3.4 4.7 1 8.7.6 13 .2 1.3-.1 2.6-.3 3.9-.3l23.3-1.6 15.3-.9 8.7-1.3c4.6-.7 9.3-.4 13.3 0-.7.5-1.4.4-2.2.3-.6-.1-1.2-.1-1.8.1l-1.2.4 1.2.5c2.4 1.1 5.2.8 8.3-.8.5.1.8-.1.9-.3.2-.3.2-.7 0-1-.2-.3-.5-.4-.8-.3l-2 .7c-.2.1-.4.1-.5 0 0 0 0 0 0 0l.3-.3-.3 0c0 0 0 0 0 0 .1-.1.2-.1.4-.1l.1 0 10.2-2.4c.4-.1.9-.3 1.4-.4 1.4-.5 2.4-.8 3.2-.2-.2 0-.3 0-.5 0-1.3 0-2.5 0-3.5.9l-.9.8 1.2 0c4.5.2 8.3-1.3 12.5-3.6.8.3 1.2-.1 1.3-.3.3-.3.3-.8 0-1.1-.2-.3-.8-.6-1.5-.3l-.1 0c-1.1.3-2 .5-2.7.3 3.4-.3 6.6-1.4 9.6-2.4 4.2-1.4 7.8-2.7 10.2-1 .2.2.5.4.7.5 1.3 1.1 3 2.4 5.1 1.2 1.1-.7 2.1-2.3 1.8-4.4 7.1-1.7 12.8-4.9 17.5-9.6l.6-.7-.9-.2c-6.3-1.3-12.1-.4-18.5.9l-18.5 3.6-6.7 1.1-10.6 2-15.6 2.4 4.4-5.4 6.9-4.1.1-.1 2.3-4.2 3.5-6.2c2.2-1.9 4.8-4.8 3-8.9l-.7-1.7-.5 4c-.8-1.5-.3-3.2.1-5 .2-1 .5-2 .5-2.9.2-3.5-.8-6.8-1.7-9.9-.5-1.8-1.1-3.6-1.4-5.4-.1-.4-.1-.8-.2-1.1-.3-2.3-.6-4.2-2.9-6-.3-.2-.6-.5-.9-.7-1.5-1.2-3.1-2.4-4.2-4.4 11.1-1.2 14.8-5.3 19-10.1 1-1.1 1.9-2.2 3-3.3l2.8-6c1.2.8 1.5 2 1.7 3.4.1.4.2.9.3 1.3.3 1.2 1.2 2.3 2.5 2.8 1.5.7 3.5.7 5-.1 4.1-2 5.3-5.9 6.4-10.6l.2-.8-6.2 1.5c-1.3-1.7-1.9-3.3-2.4-4.9-.8-2.4-1.5-4.7-5.1-5.9 0-3.6-.9-6.1-1.4-7.7-.2-.6-.5-1.4-.4-1.5 0 0 .1-.1.6 0l.3 0 .2-.2c1.3-1.7 1.3-3.7.1-5.5-.7-1.1-1.9-1.5-3.1-2-2.4-.9-5-1.9-5.4-7.6l-2.7-4.5-12.2-5.3-1.8-2.7c-.4-.6-.8-.7-1.1-.7-.3 0-.6.2-.7.5 0 0-.1.1-.2.2-3.8-5.4-10.8-6.5-16-6.4-.7 0-1.4 0-2-.1-1.3-.1-2.4-.2-4.1.2l-5.6 1.3c-.5.1-.9-.1-1.1-.4-.2-.2-.2-.4-.2-.5.1-.2.4-.6.9-.6 0 0 0 0 .1 0l.1 0 .1 0c.7-.1 1.2-.6 1.1-1.2 0-.4-.3-.8-.8-.9 1.2-2.9.3-5.9-2.6-8.1 1-1.9 3.1-2.7 5-3.5.8-.3 1.6-.6 2.2-1l.1-.1 6.3-12c.3-.5.5-1.2.7-2 .4-1.6.9-3.4 2.1-3.4.3 0 .5.1.7.2.8.7.7 2.9.7 3.8l0 .1.1.1c1.1 2 3.9 3.2 6.1 4.2.6.3 1.2.5 1.7.8 2.9 1.5 4.8 1.9 7.1.4 2.3-1.5 3.1-3.4 2.6-6.3l4.7-4.2 0-.2c1-4.4 2.2-9.1 4.8-13.4 1.1.3 2.2 0 2.7-.7.4-.5.5-1.8-.1-2.4l-.2-.2-.2 0c-.1 0-.2 0-.2 0 0 0 .1-.1.2-.1 1.4-.1 2.6-1 3.6-1.7.8-.6 1.5-1.1 2.2-1.3.6-.1.7 0 .8.1.5.3.5 1.6.6 2.9.1 2.7.3 6.3 3.9 7.6 1.9.8 5.3-1 7.9-2.9 1-.8 3.3-2.7 3.1-4.2-.4-3.8.9-6.9 2.3-10.2.4-.8.7-1.6 1.1-2.5.2-.5.3-1 .4-1.6.3-1.7.5-2.7 2.1-2.6.3.2.6.3.9.2.4-.1.7-.5.7-.9 0-.2 0-.7-.7-1.1-.1-.9.6-2.1 1.7-2.9.8-.6 1.7-.8 2.3-.5l5 2.9.2.1c4.4.4 6.9 3.1 7.4 7.9l0 .4c.1 1.1.3 2.7-.3 3.5-.4.5-1.5.9-2.5 1.2l-.5.2 2.4 4.8-3.6 10.5c-.7 2 .1 3.8 2.1 4.9-.7 1-1 1.9-.9 2.6.1.8.9 2.1 1.7 2.6 4.9 3.5 9.3 1.9 12.8.7 2.2-.8 3.9-1.4 5.2-.6 2 1.2 1.8 2.7 1.4 5-.4 2.5-1 5.6 1.7 9.2-.3.7-.5 1.3-.5 2l0 .5.5 0c1.3 0 2 .9 2.3 1.4.7 1.1.9 2.7.5 3.8l.9.5c.9-1.5 1.8-2.3 2.5-2.3.9-.1 1.7.8 2.8 1.9 1.8 1.8 4.2 4.3 8.2 3 .7-.2 1.5-.2 2.2.2.7.4 1.2 1.1 1.4 1.8 1.2 4.9-.8 8.6-4.1 12.6-.6.8-1 1.8-1.4 2.8-.6 1.5-1.2 3.1-2.6 3.9l-.1.1-2.2 3.3c-1.9 1.6-2.8 3.4-3.6 5.2-.5 1-.9 2-1.6 3-1.7 2.6-3.4 4.4-4.8 6-1.8 1.9-3.3 3.6-4.4 6-1.2 2.5-3.3 4.4-5.5 6.4-1.1 1-2.2 2-3.1 3l-8.3 9.2c-1.3 1.4-2.7 1.9-4.7 1.5l-.5-.1-.1.5c-.5 1.8-1.9 3.4-3.2 5l-1.2 1.5c-2.4 2.9-4.7 5.6-8.2 7.1-1.1.5-1.7 1.5-2.1 2.3-.3.5-.5 1-.9 1.4l-4.8 4.9c-1 1-1.9 2-2.8 3.1-2.4 2.7-4.7 5.3-8.2 7.5l-.8.5.8.4c1.7.9 3.1-.2 4.1-1 .2-.2.5-.4.7-.5l7.7-5 6.1-3.6c.4-.2.8-.6 1.2-.9 1.2-.9 2.2-1.8 3.8-1 .6.3 1.2.3 1.8 0 .6-.3.9-.8 1-1.4.1-.6-.4-1-.8-1.4 1.7-2.1 4.2-3.6 6.7-5.2 1.9-1.2 3.7-2.3 5-3.5l7.2-6.9c1.2-1.1 2.4-2.2 3.8-3.4 3.9-3.5 8-7.2 10.2-11.1.3-.6.6-1.1.8-1.5.6-1.2.9-1.8 2.3-2.8 2.6-1.8 5.5-5.5 7-7.6l9.6-13.2 6-10.5c.4-.7.8-1.6 1.1-2.4.8-1.8 1.7-3.7 3.3-4.8l.2-.2 0-.3c-.1-1.7.7-3.3 1.2-4.4l4.1-8.3c.5-1 .4-2.4.2-3.7 0-.4-.1-.8-.1-1.2 2.7-2 2.5-4.9 2.2-6.9-.3-1.8.6-2.4 1.6-3.1.3-.2.6-.4.9-.7 1.9-1.9 2.9-4.4 3.8-6.8.6-1.5 1.2-3.1 2.1-4.5.1-.2.4-.4.6-.6.6-.5 1.3-1.1 1.3-2.1.1-2.3.7-4.2 1.3-5.8.8-2.3 1.5-4.3.1-6.6l-.2-.4-.4.2c-3.4 1.4-5.1 4.4-6.4 6.8-.3-.2-.6-.6-.7-.8l-.1-.4-.3-.1c0 0 0 0-.1 0-.4 0-.6.3-1 .9-.2.2-.5.7-.6.8l-.2.2 0 .3c.1 4.2-1.6 9.1-4.6 13-1.3 1.8-1.3 4-1.3 6.1 0 .9 0 1.8-.1 2.6-.2 1.6-2.4 3.5-3.8 3.7-1.1.1-1.4-.8-1.8-2.3-.1-.5-.3-1.1-.5-1.4-1-1.7-.7-3.3-.4-5.2.1-.3.1-.6.2-.9l3.7-23.8c.1-.9.2-1.7.3-2.6.2-2.8.5-5.5 2.9-7.7.1-.1.3-.2.4-.3.7-.6 1.8-1.3 1.5-2.3l-.6-1.9c2.3-.1 3.3-2.3 4.5-4.7 1-2 2.1-4.2 4-6.2l.1-.2c1.5-3.9 4.3-6.9 8.1-8.7l.2-.1.1-.2c1.5-4.2 5-7.4 10-9 1 0 1.8.3 2.4.9.6.7.9 1.6.8 2.6l-2.6 19.2c-.2 1.6.4 3 1 4.3.4.8.7 1.6.9 2.4.1.7.1 1.4.1 2.2 0 1.9.1 4.1 1.7 5.6.3.3.6.5 1 .7 1.2.7 1.9 1.2 1.5 2.6l-.6 1.9c-1.4 4.9-2.9 10-5.4 14.5-.3.5-.6 1-.9 1.4-.6.8-1.2 1.5-1.5 2.9-.6 2.4-2.2 4.8-4 7.4-3 4.4-6.4 9.4-4.7 15l.1.2c1.6 1.8 4.3 2.2 6.7 2.6.8.1 1.5.2 2.1.4-.3.2-.7.2-1 .2-.3 0-.5 0-.8.1l-.6.4.5.4c1.1 1 2.4.4 3.3 0 .3-.1.5-.3.7-.3 1.8.5 3.2 2.5 4.5 4.2 1.3 1.8 2.4 3.3 3.8 2.6l1.3-.7c-2.3 3.6-5.6 6-9.6 6.9l-6.4 3.3-12.4 5.7c-4.1 1.9-7.2 6.3-7.6 10.8-.3 3 1.8 5.3 5.1 5.6l4.9.5c-.2.1-.4.3-.4.3-.2.2-.2.4-.2.6.1.6.9 1.1 1.2 1.2.4.2 1.3.1 1.8-.2.2-.2.3-.4.3-.6l0-1.1 8.6-.3c-.1.1-.1.1-.2.2-.4.4-.9.9-.9 1.5l0 .2.1.1c1.4 1.8 3.7 6.2 2.1 8.3-2.8 3.6-8 4.8-11.8 5.7l-8.8 2-6.5 1.1c-1.9.3-3.8.5-5.8.6-4.4.3-8.9.6-12.9 3.2l-3.9 4c-.2.2-.4.6-.5 1-.3 1-.5 1.1-.9.9l-.8-.2.1.8c.5 2.9 1.2 2.9 1.5 2.9l1.7 0c2.4 1.3 4.8 1.5 7.2 1.6 2.6.2 5.2.3 7.9 1.9.6.3 1.1.7 1.6 1 1.1.8 2.2 1.5 4 2-5.6 7-12.9 11.6-20.6 13l-12.2.2-.1.1c-2.3 2.2-4.9 2.7-8.1 1.6l-.4-.1-.2.4c-.9 1.4-2 2.4-3.2 2.7-1 .3-2.1.1-3.2-.6l-.3-.2-.3.3c-1.1 1.1-2.1.7-3.4-.1-.4-.3-.8-.5-1.2-.6l-.1 0-.1 0c-3.8.1-7.2 2-10.6 3.8-1.3.7-2.4 1.3-3.6 1.8-5.3 2.4-10.7 7.5-13.9 11.5l-8.3 10.1-.1.1 0 .1c0 .1-.3 2.5.4 2.8l.4.1.2-.3c.1-.1.2-.2.4-.2.1 0 .1 0 .2.2l.3.4.4-.2c.4-.2.7-.9.7-1.6 2.8-.3 4.5-1.7 6.2-3.1.5-.4 1-.8 1.5-1.2 1.7-1.2 2.9-2.5 4.3-3.9 2.5-2.6 5.4-5.5 11.8-8.8l9.9-5.1c.8-.4 1.4-.9 1.9-1.4.9-.8 1.6-1.4 3.5-1.3.6 0 1.2-.2 1.7-.5.9-.4 1.6-.8 2.6-.2l.4.2c1.5 1 2.2 1.4 3.1 3.3.8 1.7 2.8 1.9 5.5 2.2 2.6.2 5.7.6 9.2 2.3 2.2 1.1 2.5 3.3 2.8 5.7.1.6.2 1.3.3 1.9l0 .2.1.1c.3.3.8.6 1.2.9.9.6 1.9 1.2 2.2 2.2l.2.8.6-.5c1.7-1.4 3.4-2.9 4.9-5l.1-.2-3.1-9.2c-.3-.5-.9-.8-1.5-1.2-.7-.4-1.4-.8-1.8-1.4l8-2.2c.3.1.4.3.5.4s-.1.3-.2.3c-.2.2-.5.3-1.1.2-.2-.1-.4-.1-.6-.2l-.3 1c.2.1.4.1.6.2 2 .7 4.4 3.2 3.9 6-.1.6-.3 1.1-.6 1.7-.5 1.2-1 2.5-.6 4.5l-1.6 7.1.1.2c.2.4.6.8 1.1 1.2 1 .8 1.6 1.4 1.4 2.3l-.1.3.3.2c1.7 1.2 2.8-.2 4-1.6.4-.5.8-1 1.3-1.4 1.5-1.5 2.1-3.1 2-5.4.3.3.4.6.5.9.1.3.3.7.7.8l.1 0c.4 0 .6-.3.7-.4l3.8-4.2c1-1.1.9-1.8.6-2.5-.1-.2-.1-.3-.1-.5-.1-3.9 2.3-8.6 4.5-12.7 1.7-3.2 3.2-5.9 3.3-8 .2-2.6.7-3.3 2.4-5.4l.2-.3c.5-.6.7-1.4 1-2.2.3-1 .7-2.1 1.5-3.1l6.7-8.2c.5-.6.9-1.1 1.4-1.5.7-.7 1.4-1.3 2.1-2.8.9-1.7 3.6-4.7 5.2-5.8 4.5-1.4 6.3-3.8 8.8-7.1.8-1.1 6-4.7 9.3-5 .8-.1 1.5.1 1.8.4l.2.2.3-.1c5.5-2.4 10.3-2.2 14.2.4 7.5 10.7 7.2 24.9-.8 36.1-.4.6-.8 1.2-1.2 1.8-1 1.6-2.1 3.3-3.4 4.2-1.4 1-2.5 2.7-3.7 4.6-1.5 2.4-3.2 5.2-6.2 7.5l-.2 0c-2-.1-3.9-.2-4.2 2.6-.1.9-.2 2 .4 2.8.2.2.4.4.7.5-1.8 1.7-3.7 2-5.7 2.4-1.1.2-2.2.4-3.2.8-6.6 2.6-12.9 4.6-19.6 6.7l-1.9.6c-1.2.4-2.4.7-3.6 1.1-2 .6-3.9 1.1-5.7 1.8-6.6 2.6-12.1 4.7-18.4 5.5 0 0-.1-.1-.1-.2 0 0 .1-.1.2-.1 0 0 0 0 .1 0 .5 0 1.4-.1 1.6-.4l.2-.3-.9-1.6c-.3-.6-1-.9-1.8-.9-1 0-1.9.5-2.3 1.2l-1.9 3.4.7.1c.2 0 .3 0 .5 0 .4 0 .7 0 1.1.2l-7.1 2.3c-9.2 2.1-18.4 4.8-28 8.2l-1.6.6c-6.7 2.3-13 4.6-19.1 9.2l-.7.6.9.3c3.8 1.4 7.9 1.5 13 .3l17.3-4.1 36.9-9.7c2.5-.7 4.6-1.5 6.4-2.3 3.3-1.4 5.9-2.5 9-1.4l.3.1.2-.3c1.3-1.5 3-2.7 5.1-3.3l9.1-2.8 14-4.8 11.4-4.4c3.1.7 5.4-.5 6.1-3.1l18.3-7.1c.2-.1.5-.1.7-.1.6-.1 1.3-.1 1.9-1 1.7-2.3 4.7-3.3 7.5-4.2 1.3-.4 2.6-.9 3.9-1.4 1.3-.8 2.4-1.8 3.7-2.9 1-.9 2.1-1.8 3.3-2.7l5.3-3.7 9.7-7.7c.4 1.6-.3 3-1 4.5-.3.7-.6 1.4-.8 2.1l-2.3 8.3-5.3 14.3c-.2.4-.8.9-1.4 1.4-1.2.9-2.7 2.1-2.2 3.9l0 .1.1.1c.5.4 1.1 1 .9 1.5l-5.4 10.7c-.5 1-1 2.2-1.4 3.3-1.1 2.8-2.3 5.6-4.6 7.5-1 .8-1.1 1.6-1.2 2.4 0 .4-.1.8-.3 1.2l-10.4 18.4-2.7 3.1-.1.1c-1.8 3.8-3.7 7-6.4 10.1-1 1.1-1.8 2.5-2.6 3.7-1.3 2-2.6 4.1-4.5 5.5-.7.5-1.8 1.9-3.2 3.9-2.6 3.5-6.5 8.8-11.8 13.3-.5.4-.9.7-1.3 1-.9.7-1.7 1.2-2.6 2.9-1 2-3.2 3.6-5.2 5.2-1 .8-2 1.6-2.9 2.4l-5.2 4.9-6.5 4.2-5.9 5.6-4 3.3-4.9 5.3c-.5.5-.9 1.2-1.3 1.8-.7 1.2-1.3 2.3-2.7 2.7-.8.3-1.5 1-1.8 1.9-.2.6-.2 1.3.2 1.7l.2.3 8.2-2.5c10-5 19.5-11.6 30.8-21.5 1-.9 2.1-1.8 3.1-2.6 2.8-2.2 5.4-4.3 7.4-7.4l4.6-3.4.1-.1c.6-.7 1-1.4 1.5-2.1 1.3-1.9 2.4-3.5 4.6-4.8 2.1-1.3 4.1-4.4 6.4-7.9 2.4-3.7 5-7.9 8.3-10.6l.1-.1 0-.2c.7-3.1 2.5-5.7 5.7-8.2l.1-.1 0-.1c1.3-3.9 2.8-7.9 6.2-10.4l.1-.1.1-.1c1.3-3.6 3.2-7.3 6-11.6l1.8-5.1c2.7-2.6 4.1-6 5.5-9.2.5-1.3 1.1-2.6 1.7-3.8l4.9-9.6c.3-.5.6-1.1.9-1.7 1.6-3.1 3.5-6.6 3.5-9.9 0-1.8.5-2.5 1.2-3.4.4-.5.8-1 1.1-1.8 5.5-12.5 8.7-26 9.6-40.1.1-2.4.2-3.4.9-5.7 2-7.3-2.5-14.4-4.6-17.2ZM624.8 346.4c2.1-3.9 4.3-7.6 7.7-10.3l.3-.3-.2-.4c-.1-.2 0-.9.1-1.1l.3-.3-.1-.3c-.1-.2-.3-.3-.5-.3-.1 0-.2 0-.3 0-.1 0-.3 0-.5 0 .1-.9.2-1.7.3-2.6.6-4.8 1.3-9.8.5-14.8l-1.7-10.7c-.3-2-2.2-3.6-4.2-5.2-2-1.6-4-3.3-4.4-5.4.9-.7 1.7-1.5 1.6-2.3-.1-.4-.4-.7-.7-.9l4.8.8c5.3 0 9.6 1.8 14.3 3.8l12.2 5.1 4.5 3.9.1.1c5.3 2.5 10.6 7.9 7.8 14.9-.7 1.9-2.5 5.1-4 6.1-2.6 1.9-3.8 3.6-5.3 5.7-.3.4-.5.7-.8 1.1-1.4 1.9-4.7 4.5-7 5.6-3.2 1.4-4.7 2.6-7.3 5-2.6 2.4-6.1 4.1-9.5 5.9-.9.4-1.7.9-2.5 1.3l-7.5 4c-1 .5-1.9 1-2.8 1.5-3.1 1.7-6 3.3-9.2 4.4l4.5-6.8c1.6-2.4 3.9-3.6 5.9-4.7 1.6-.9 3-1.6 3.6-2.8ZM653.1 287.6c-.1 0-.1 0-.2 0 0 0 .1 0 .2 0l0 0-.1 0ZM442.5 213.2c0 0 0 0 .1 0 0 0 .1 0 .1 0 .1.1.2.2.2.5-.2.3-.4.6-.6.9l0-.6c0-.5.2-.7.2-.8ZM401.8 250.9c-.4-.1-.6 0-.8.1-.5.3-.6 1-.8 1.8l0 .1c-2.7 0-5.7-1.2-8-3.2 4.3-5.5 8.7-8.5 14.1-9.8l-2.5 12c-.6-.5-1.2-.7-1.9-1ZM166 393.7c1 .3 2-.2 2.6-.9.6-.8.8-1.7.3-2.3-4.9-7.3-3.3-16.4 4-23 .4-.4.8-.8 1.3-1.3 1.7-1.7 3.5-3.7 5.8-3.1.3.1.7.3 1.1.6.8.5 1.7 1.1 2.8.8 1.7-.3 1.9-1.8 2-2.8.1-.5.1-.9.3-1.3 1.2-2.2 14.2-5 21.3-3.5 2 .4 3.8.7 5.3.9 5.9.8 9.1 1.2 16.9 11.8.6.8 1 1.4 1.5 2.1 1.1 1.6 2.1 3.1 3.8 4.7 2.3 2.2 3.2 5.7 4 8.5.5 1.8.9 3.4 1.6 4.4 2.1 2.9 1.7 6 1.4 9-.3 2.4-.5 4.7.5 6.8l-10.7-1.1-14.8-1.2-4.2-1.3c-1.8-.6-3.7-.4-5.5-.2-1.4.1-2.9.3-4.3.1l-21.2-3.1c-1-.1-1.9-.2-2.9-.2-1.8 0-3.4-.1-5.2-.9l-6.1-.9c-.8-.1-1.1-.4-1.4-.7l-.1-.1c-.1-.1-.3-.5-.2-.9 0-.3.1-.5.1-.6ZM156.4 385.1c.3 2.9 1.5 4.9 2.8 7.2.5.8.9 1.6 1.4 2.4-.7-.1-1.4-.3-2.1-.4-4.8-.9-9.2-1.7-13.3-3.6-.3-.1-.4-.3-.4-.7-.1-1.2 1.4-3.4 2.3-4.1.9-1 1.1-2.4 1.3-3.5.1-.6.2-1.2.3-1.7l.1-.3-4.1-5.3-.3.1c-3.1.6-5.7-.7-6.8-3.3l-.1-.2-9.1-2.4c-1.1-.3-2.8-2.6-3-4.1-.4-2.9 1.9-4 4.4-5l.1-.1c3.8-3.2 3.6-6 3.2-10-.1-1.1-.2-2.1-.2-3.4l0-.2-.2-.1c-1.6-1.4-6.8-6.5-5.5-13 .7-3.2 3.3-6.4 5.6-8.1.3.1.6.2.9.3 1.2.4 2.6.9 3.8.1l.4-.3-.3-.4c-.6-1-1.4-1.5-2.4-1.7l.1-.6c.1-1.5-.8-2.4-1.7-2.7-1.6-.4-2.9.4-4.1 1.1-1.6.9-2.5 1.4-3.8.2l-.3-.3-.3.3c-4.9 4.4-7.9 10.5-8.3 16.8l0 .2c1.2 3.1 2.6 5.7 3.9 8.3.7 1.2 1.3 2.5 2 3.8.3.5.3 1 .1 1.5-.6 1.5-3.1 2.7-4.5 3.3-1.7.8-2.4 2.4-3 3.9-.3.8-.7 1.6-1.1 2.1-1.5 1.7-3.5 6.2-3.1 8.8-4.2-1-8.4-5-8.3-9.5.4-.2.8-.4 1.2-.6 1.8-.9 4-2 3.7-4.5-.7-5.3-5.7-8.6-10.2-9-2.5-.2-4.2-.9-5.2-1.9.3-.3.6-.6.6-1 0-.6-.7-.9-1.2-1.1-.1 0-.2-.1-.3-.1-.6-.3-1.2-.5-1.7-.3-.3.1-.6.4-.7.9-.6.1-2-.3-3.2-1.1-.9-.6-1.4-1.3-1.3-1.7.7-3.4.9-5.3-1.9-7.8-7.4-6.5-12.5-13.5-15.2-20.7-2-5.4-1.3-7.1-.3-9.6.5-1.2 1-2.5 1.4-4.4 2.7-3.9 7.5-6.6 13.6-7.7-.2.5-.8.6-1.6.6-.5 0-.9.1-1.2.3l-1.1.7 1.3.2c2.2.4 4.8 0 7.5-1.3l2.8-1.3c1.1 0 2.2.2 3.2.3 1.6.2 3.3.3 5 .3 4.3-.1 8 .9 12.3 3.3.9.5 2 .9 3 1.3 1.3.5 2.6 1 3.8 1.8 1.6 1.1 3.7.7 5.6.4.6-.1 1.2-.2 1.7-.2 1.2 2.4 3.2 4.2 4.8 5.7.9.8 1.7 1.5 2 2.1 2.2 4.1 9.1 8.3 13.4 10.4-.4.3-.6.5-.7.7-.2.3-.1.8.3 1.4.9 1.2 2.9 2.4 5.7 1.8.4-.1.7 0 1.1.3.7.6 1.2 1.9 1.3 2.9 0 .7-.4 1.7-1.2 2.4-.5.4-1.3.8-2.3.6-.4-.1-.9-.3-1.5-.6-1.4-.7-3.2-1.5-4.8-.4l-5.4 3.6 1.2.2c1.7.3 2.4 1.6 3 2.8.4.7.7 1.4 1.3 1.8 3 2.1 4.9 4.5 6.5 6.7 3 3.9 5.4 7 12.1 5.3.7-.2 1.6.3 2.5.9.7.4 1.4.8 2.1.9 3.1.1 4.9.6 7.6 2.3.8.5 1.9.8 2.8 1.1 1.3.4 2.7.8 3.6 1.8l-9.8 5.1-3.8 4.2c-7.4 6.9-11.2 16.4-10.3 25.4ZM135.9 387.3l-.9.4.9.5c.1.1.2.1.3.2.5.2.8.3.9.7-8.1-1.1-15.5-3.4-21.7-5.5-1.5-.5-3-.9-4.5-1.2-3-.7-6.1-1.4-8.8-3.4l-.1-.1-.1 0c-4.2-.4-8.5-2-12.9-4.6l-.1-.1c-8-2.3-15.6-5.5-24.7-10.5-2.9-1.6-5.1-4.4-5.8-7.5-.6-2.7-.1-5.2 1.5-7.4.4-.6 1.2-1.1 2-1.6 1.3-.8 2.8-1.8 3.1-3.7 0-.3 0-.7 0-1 0-.4-.1-.8 0-1 .1 1.3.5 2.8 1.5 3.1 2 .5 3.6-1.4 4.5-2.6.4.2.8.4 1 .6.2.2.5.4.8.2l.3-.1 0-.3c0-.1 0-.2 0-.3 0-.3 0-.6.1-.9l3.4 7.5 5.7 2.7c1.7.8 3.6 1.5 5.6 2.2 3.3 1.2 6.6 2.4 9.1 4.2-2.4 4.4-2.9 9.3-1.2 13.9l.1.2.2.1c2.1 1.1 4.7 3 5.5 6.2l0 .2.2.1c2 1.3 3.8.9 5.5.4.5-.1 1-.3 1.6-.4.9-.2 2.2 0 3.4.2 1.9.3 3.7.6 4.6-.3.4-.3.6-.8.5-1.5 0-.5-.5-.8-1.1-1.1-1-.5-2.3-1.2-2.3-3.1 0-.1.1-.3.5-.6.5-.4 1.1-.6 1.5-.6.9.8 1.6 1.8 2.5 2.8 1.7 2.1 3.4 4.3 6 5.2l12 4.2c1.2.4 1.6.9 1.5 2-.1.6-.7 1.1-1.9 1.7ZM132.8 323.2c.2-.2.5-.2 1-.2.3 0 .6.1 1 .2l.1 0c-.6-.1-1.3-.1-2.1-.1ZM84.5 289.5c1.7-.4 3.3-.5 4.9-.5l-2.7.5c-1 .2-1.7.3-2.1 0ZM316.3 374c0 0 0-.1 0-.2.1-.3.4-.7.8-1l.7 2.5c-.3-.5-.8-1-1.5-1.3ZM415.1 197.4l0 0c.5 0 .6.2.7.3 0 .1 0 .1-.1.1-.1.1-.3.2-.6.1-.2-.2-.4-.3-.6-.5l.5 0ZM339.1 161.5c0-.5.2-.8.4-.8 0 0 0 0 0 0 .1 0 .2.1.2.2 0 .1-.1.3-.4.5l-.2.1ZM357.4 282.1c-.4-1.2-.4-2.1-.2-2.9.2 1 .3 2 .3 3.1l0-.1ZM281 239.1l2.8 5.4c3 9.5 6.8 23.7 4.7 37-.1.9-.1 1.8 0 2.8.1 1.5.3 3.1-.4 4.4-1.1 2.2-1 4.4-.9 6.5.1 1.4.1 2.8-.1 4l-2.1 9.6c-1.9 8.6-3.7 16.7-3.7 25.4l1.1 5.8 3.2 3.1c.2.8.3 1.6.5 2.4.7 3.7 1.3 6.6 2.7 7.2.3.1.8.3 1.4 0l.2-.1 0-.3c.1-.7.6-1.5 1.2-2.2.3-.5.7-1 .9-1.5.2-.5.3-1 .3-1.5 0-.3 0-.7.1-.8.1-.1.7-.3 1.1-.4.8-.2 1.6-.4 1.8-.9 1.4-2.6-.2-6.3-1-7.9l-.3-3.9-.1-.2c-2.1-3.8-2.5-7-1.5-11.8.1-.3.1-.7.2-1 .3-2 .7-3.6 2.2-3.8 1 2.1 3.8 4 5.2 4.9.3 1 .6 2 .8 3 1 3.7 2 7.6 4.5 10.9l-9.9 15.2-3.3 4.3c-2.8 2.2-4.2 4.7-5.8 7.4-.4.8-.9 1.5-1.4 2.3l-8.7 13.7c-4.5 7.1-6.6 19.3-7 28.5l-20.5-1c4.8-6 4-15.3 1-21.9l-4-9c-.9-2.1-2.8-3.3-4.2-4.2-.4-.2-.7-.5-1-.7-.7-2.7-1.5-4.9-3.6-7.1l-6.8-7.3-5.7-3.7-.2.1c-2.6.6-4.1-.4-6.4-1.9-7.3-4.8-16.4-4.5-23.5-3.7-.4-.1-1-1.9-.9-2.3l.1-.4-16.5-5.9c-3.6-1.3-3.7-3.1-3.8-4.8-.1-1.3-.2-2.6-1.7-3.5-1.8-1-3.3-.1-4.6 1-5.9-3.9-4.7-7.6-3.9-10 .3-.9.5-1.6.3-2.2-.3-.9-.8-1.2-1.5-1.6l-.1 0c-1.3-1.2-2.5-2.6-3.6-3.9-2.1-2.4-4-4.6-6.2-5.6-4.3-1.9-7.8-5-10.6-9.6-.2-.3-.5-.5-.9-.7-.8-.5-1.4-1-1.3-1.9l0-.3-.3-.2c-3.1-1.7-5-5.5-5-9.7l0-.2-.2-.2c-1.9-1.8-2.9-4.1-2.9-6.5 0-2.9 1.4-6 4-8.4 3-2.9 1.1-8.6-.8-11-1.2-1.5-1.3-3.1-1.5-4.5 0-.3-.1-.7-.1-1l0-.3-.3-.1c-2-.8-3.3-1.6-4.3-3.5l-6.2-12.4c-1.2-2.4-1.5-4 .1-6.2l.2-.3-.1-.3c-.3-.6-.9-.8-1.3-.7-.4.1-.8.6-.7 1.4 0 .2 0 .3 0 .3l0 0c0-.1-.1-.1 0-.3l0-.1 0-.1c-.3-1-1-1.8-1.6-2.4-.2-.3-.5-.5-.6-.7-.5-.7-.2-1.2.4-1.9.3-.3.5-.7.6-1 .6-3.5.2-7.3-.2-11.3-.7-6.9-1.5-14.8 1.8-24.7.2-.4.4-.8.8-1.2.5-.7 1.1-1.5 1.3-2.8.4-4 3.5-8.9 7.4-9.7 3.2-.6 3.8-.8 5.2-3.8.4-.7.8-1.5 1.3-2.3 1.1-1.7 2.3-3.6 2.5-6 .4-4.3 1.1-8.6 1.8-12.8.2-1.3.5-2.7.7-4.1.7-4.6 2.4-7.9 5.4-11l.8-.8c2.2-2.3 4.5-4.7 8.2-5 .1 0 .1 0 .2.1 0 0-.1.1-.2.1-.5 0-1 .1-1.5.4l-.5.2.3.5c.6 1.2 1.9 2.2 3 2.5 1.5.3 3.1-.1 4.6-1.2l1.2-.9-1.5 0c-.4 0-.7-.2-.7-.4 0-.1.2-.2.5-.1 1.5.4 3.1.8 4.6 1.2 9.4 2.5 18.2 4.8 27.8 5.6l.6 0 0 0c.2 0 .4.1.4.3 0 .1 0 .2-.2.3-.8-.5-1.3-.5-2.1-.5-.3 0-.6.2-.7.5-.2.3-.1.7.1 1 .2.3.5.4.9.3 2.9-.5 4.1 0 5.1 2.2.3.6.9.9 1.7 1l0 0c.6 0 1.5-.1 1.8-.6.1-.1.2-.4.3-.7.2-.4.5-1.1.8-1.4 3.2 1.1 8 2.7 10.6 5.5.6.6 1.1 1.2 1.6 1.8 1.9 2.2 3.7 4.2 6.5 5.7 1.6.9 3.1 2.3 4.5 3.7.5.5 1 1 1.5 1.4.8.7 2 1.5 3.5 2.4 2.6 1.6 6.2 3.8 10.2 7.5.7.6 1.6 1.2 2.5 1.9 2.1 1.5 4.3 3 4.9 5.4.5 2.2 1.7 3.5 3.2 5 1.6 1.8 3.5 3.7 5.1 7.7l-.4 6.5.3.1c5.9 2.9 6.5 5.1 8.1 11l2.4 8.7c1.2 7.2 3.4 15.4 10.3 21.8l.6.6.5-2.2 2.5 5.6Z"/> <path fill="#FFF1E1" d="M473.5 557.7l-2.4-.4c-5-.8-15.4.6-18 2.4-1.9 1.3-5.5 3.2-7.2 2-2.1-1.5-2.9-1.3-5.6-1l-10.4 1.5-.1 0c-1.7.7-3 .5-4.4.3-.7-.1-1.5-.2-2.4-.2l-23.1.4-12.2-.4c-.7 0-1.4 0-2.1-.1-2.9-.1-5.6-.2-8.5-.6l-34.8-4.8-6.6-1.1c-1.7-.3-3.2-.5-4.8-.6-1.1-.1-2.1-.2-3.3-.4l-17.4-2.3-18.3.2c-.2 0-.4 0-.6-.1-.7-.1-1.6-.2-2.3.4-.5.4-.7 1-.8 1.8l0 .4.4.1c1.4.4 2.4.9 3.1 1.8-2.7 0-4.7-.1-7.1-.7-.1-.1-.3-.3-.5-.5-.6-.6-1.3-1.4-2-1l-.3.2c-.5.3-1.4.8-1.9.7l0 0-10.2-1.2-10.4-1.4c.7-.5 1.6-.4 2.9-.2l.6.1 0-.6c0-2.4.2-4.3 2.3-5.9l.4-.3-.3-.4c-1.3-1.7-4.8-1.2-5.8-1.1-2.1.3-2.3.8-2.4 1l-.8 2.2c-1.6 1.2-2.1 2.7-2.5 4.2-1.9.5-4.3.6-7.3.4.9-2.6 0-4-.6-5-.5-.8-.8-1.3-.5-2 1.3-3.5 7.7-2 12.8-.8l.1 0 8.7-.4 6.4 1.3c4 .8 8.6.3 12.4-1.2.3-.1.7-.2 1.2-.2 1.1-.1 2.4-.3 3-1.1.3-.4.4-1 .2-1.6-.3-1-1.6-1.1-3-1.1-.7 0-1.6-.1-1.9-.3-4.9-3.2-12.6-5.2-18.7-2.3-.1.1-.5 0-1.4-1.8-.1-.2-.2-.4-.3-.5l-.1-.1-.1-.1c-1.8-.7-4.7-1.1-6.9-1.4l-6.4-.9c-1-.1-2-.6-2.9-1-.9-.4-1.7-.8-2.4-.9-.7-.1-1.4-.2-2.1-.3-2.5-.3-4.9-.6-7.5-1.2l-7.3-1.9-11.1-3.1-14.7-3.6c-1.2-.3-2.5-.3-3.7-.4-1.6 0-3.2-.1-4.8-.8-.9-.3-2.1 1-2.3 1.3-.2.3-.2.8-.1 1.2.2.6.5 1.2 1 1.5l15.7 7.4 13.7 4.9c.3.1.7.2 1.1.3 1.1.2 1.6.4 1.7 1 .2 1-.2 2-.9 2.9l-.2.3 7.9 12.4c1.2 1.8 2.7 2.9 4.2 4 1 .7 2 1.4 2.8 2.2l.3.3c2.6 2.9 5.3 5.9 9.4 6.2 1.1.1 2.4 0 3.8-.4 1.2-.3 2.8-.1 4.3.1.8.1 1.5.2 2.2.2l10 .4 40.4 4 26.2 1.8 16.4.8 6.9.2 14.8.6 7.1.1c-.2 0-.4.1-.6.1-.4 0-.7.1-1.1.2l-1.8.4 1.7.6c2 .7 3.5 1 5.4.7l1.6-.2-1.5-.7c-.7-.3-.8-.6-.8-.6 0-.1.3-.3.8-.4l14.1-.2 20.7-.8c1.2 0 2.3-.1 3.5-.1 7.8-.3 15.8-.5 23.1-3.2 2.7-1 3.9-1.3 6.8-1.1.1 0 .3 0 .4 0 4.3.4 9-1.2 13.1-2.6 1-.3 1.9-.6 2.8-.9l.2-.1.1-.2c.6-2 1.7-2.3 2.7-2.7.8-.3 1.8-.6 2-2 .1-.6.2-1.3-.1-1.8-.1-.2-.3-.3-.6-.4Z"/> <path fill="#FFF1E1" d="M539.7 499.8c-.4.1-.9.2-1.2.3-5.6.6-9.1 2.1-12.6 3.6-2.7 1.2-5.3 2.2-8.7 2.8l-.2 0-.1.2c-.2.4-.4.8-.6 1.2-.7 1.4-1.4 2.8-2.7 3.5-.6.3-1.8-.6-2.4-1.5l-.2-.3-15.5 5.5-32.6 8.8-19.5 4.3-12.7 2.5-34 6.9-1.1.2c-3.1.6-6.3 1.2-9.1 4l-.7.7.9.2c4.7.8 8.6 1.4 12.8 1.1l25.7-1.8 17.2-2.7 41.1-9.8 25.3-7.6c-5.4 8.4-9.3 17.5-12.8 26-5.4 1.6-8.3 5.6-9.9 7.8-.4.6-.9 1.2-1.1 1.3 0 0 .1 0 .2 0l-.4.9 0 0c.3.1.7.4.5.8l-.2.6 5.8 0c2.1 0 4.9-.1 6.2-.9 1.9-1.1 3.5-1.6 4.9-2 2.9-.9 5.1-1.5 7.5-6.4.6-1.2.8-2.6 1-4 .3-1.8.5-3.4 1.5-4.6 1.1-1.3 1.6-2.5 2-3.8.2-.5.4-1.1.7-1.7l4.4-9.2c1.2-2.5 1.6-4.7-.3-7.3-.6-.8-.8-2.1-.5-3.1.2-.6.6-.9 1.1-1.1l1.8 1.2 1.9-1c6.4-2.7 14.6-6.6 20.9-13.7l.3-.3-.2-.3c-1.4-2-3.1-1.5-4.6-1.1Z"/> <path fill="#FFF1E1" d="M310.3 119.2l.2.7c.8 3.1 3.4 4.7 6.8 4.2.1.1.1.2.2.3 0 .2-.1.3-.2.4-.3.1-.6.1-1.1-.2l-.5.9c.6.4 1.4.6 2.2.7 1.5.1 3.1-.3 4.1-1.4 1-1 2.5-1.5 3.9-1.9 1.4-.4 2.8-.8 3.8-1.7 7.7-7.1 9.6-18.7 5-29.6l-.1-.2c-1.7-4-3.3-7.7-1.6-12.1 2.2-5.6 7.7-8.5 13.3-10.8 1-.4 1.9-.9 2.7-1.3 1.9-1 3.6-1.8 6.3-2 3.5-.2 8-2.8 10.2-5.1 4.9-5.1 7.2-11.5 9.3-18.3 1.6-2.2 4.7-6.6 6.8-6.1 2.4.5 1.8 4.9 1.4 7.3-.2 1-.2 1.5-.1 1.8l2.3 9.6.3-8.3c.4 1.7.6 3.4.7 5.2 0 .6.1 1.1.1 1.7l1.5 16.1c.4 4.6 2.8 7.3 6.8 7.7.1 0 .1 0 .2 0l.4 0 .1-.3c.9-2.2.7-4.6.5-6.8-.1-1.4-.3-2.8-.1-4.1.6-6-.3-11.4-1.2-17.1l-.3-2c-2-12.3-5.3-18.9-10-19.6-7-.9-12.6 2.2-14.8 8.6-.4 1.1-1 2.1-1.6 3.3-1 1.8-2 3.6-2.3 5.7-.1 1-1 2-1.8 2.8-.4.4-.8.8-1.1 1.3l-.1.1 0 .2c.2 5.1-4 6.3-10.3 8-2.7.7-5.7 1.5-8.9 2.8l-5.2 2.1c-2 .8-2.5 1.3-3.7 2.3l-5.1 4.5c-5.4 4.7-8.6 15.3-5 22.6l2.7 7.6c-.5 0-1.1.1-1.5.4-.4.3-.6.7-.6 1.1l0 .2.1.1c.4.4.9.6 1.3.9.7.4 1.4.7 1.7 1.4 1.5 3.2.4 8-2.3 9.7-.3.2-.9.2-1.4.2-.8 0-1.7.1-1.9.8l-.9 2.6c-.2.7-1.5.9-2.6 1.1-1.1.2-2.2.3-2.8.9-1.4 1.3-2.2 1.9-4.9 1.5l-.8-.1Z"/> <path fill="#FFF1E1" d="M202.3 457.6l.3-.1c4.2-1 10.6-.6 11.5.2.6.5 1.1 1.6 1.5 3.2l.1.5.5-.2c.6-.2.9-.7 1.2-1.1l.5.7.1.1c1.8 1.6 3.8 2.5 5.6 3.3 3.2 1.4 4.8 2.3 4.3 4.8l-.1.3.2.2c1.5 1.1 3.2.5 4.6-.1.6-.2 1.1-.4 1.5-.5l20.4 7.3 10.1 3.7c.2.1.4.1.7.1 1.9.2 4.5-1.3 5-2.6l0-.1 0-.1c-.1-.7.1-1.4.4-2.2.1-.5.3-.9.4-1.4.3-1.9-3.1-4.2-4-4.6-3.9-2-7.9-2.9-12.2-3.8l-.4-.1c-6-1.3-11.9-2.9-17.1-4.4l-15.7-4.4c-.8-.2-1.8-.3-2.8-.3-1.6-.1-3.2-.2-4.2-.9-.5-.4-1.1-.8-1.6-1.2-1.4-1.1-2.7-2.1-4.5-3l-5.7-2.8c-3.5-1.7-15-6.8-18.1-1.2l-.2.3.2.3c2.9 3.5 6.3 4.6 9.6 5.6 2.9.9 5.6 1.8 7.7 4.3l.2.2Z"/> <path fill="#FFF1E1" d="M504 285.2l.9-.1c6.1-.4 10.2-4.6 12-12.6.3-1.3.7-2.6 1.1-3.9 1-3 2-6.1 1.4-9.5l0-.3-5.2-2.5-.2.4c-1.2 2-2.8 2.8-4.7 2.7-.1 0-.3 0-.4-.1l-.3 0-2.4 3.5c-2.7-2.6-5-3.8-6.9-3.4l-.2 0-.1.1c-1.8 2.1-3.1 3.4-5.6 2.3-.3-.1-.7 0-1 .5-.3.7-.4 2.4.4 2.9.3.2.8.1 1.2.1.4 0 .8-.1 1.2 0 .2 0 .6.7.8 1.1.3.5.7 1.1 1.1 1.4 3.9 2.9 4.2 5.6 4.6 8.4.2 1.8.4 3.6 1.6 5.5.2.4.5.6.7.9.6.7.9 1 .5 1.7l-.4.8Z"/> <path fill="#FFF1E1" d="M476.5 315.7l0 .2c0 .6.3 1.1.8 1.3.2.1.4.1.6.1.8.1 1.7-.3 2.4-.9l3.6-3.3 2.7-4.2c2.8-6.7 2.2-12.7 1.6-18.4-.5-4.6-.9-9 .4-13.5 1-3.2.1-6.6-.7-10-.1-.4-.2-.9-.3-1.3l-.2-.7-.6.4c-4.4 2.8-5.5 7.3-6.6 11.6l-.1.4-.1 0c-1.5-.1-2.5.6-2.9 1.4-.6 1.4-.1 2.8 1.4 3.8.8.5.7 1.3.4 2.5-.1.5-.2.9-.2 1.4l.2 10.6c0 1-.1 1.9-.3 2.9-.2 1.4-.4 2.9-.1 4.5.8 4.1 0 7.9-2.1 10.9l-.1.1Z"/> <path fill="#FFF1E1" d="M621.7 246.6c2.8.1 5.2.1 7 2.4 1.5 1.9 1.8 4.2.8 6.7l-3.3 8.2c-.1.3-.3.6-.4.9-.7 1.6-1.4 3.3-.6 5.1l.2.4.4-.1c4.1-.9 9.5-2.9 11.9-7.4l1.2-6.7c1.7-9.5-2-15.9-10.6-18.6l-.1 0-9.3 1.6c-2.6.4-4.7 1.9-5.8 4l-.2.3.2.3c2.6 2.7 5.8 2.8 8.6 2.8Z"/> <path fill="#FFF1E1" d="M375.1 389.2l1.2-1.4c1-1.2 2.9-1.7 4.7-2.1 1.6-.4 3.1-.8 4.1-1.7 1.1-1 1.8-2.2 2.5-3.4.9-1.5 1.7-2.9 3.2-3.8 2.1-1.2 4-2.8 5.2-4.4 1.1-1.4 1.1-4.9 1-5.3 0-1.8-1.5-3-4.3-3.6-2.5-.6-4.2 1.1-5.3 2.7l-2.8 3.7c-.7 1-1.6 1.9-2.4 2.8-1.5 1.6-3 3.3-4.1 5.5-.2.4-.8.9-2.7 1.3l-.5.1.1.5c.5 2.7.6 4.7.2 7.3l-.3 1.8Z"/> <path fill="#FFF1E1" d="M298.4 211.7l-.1-.2c-.9-1.5-1.1-3.1-1.4-4.8-.1-.8-.3-1.6-.5-2.5l-2.5-9.5c-1.2-4.8-3.5-10.4-7.8-9.9l-.4 0-.1.4c-.4 2.7-.5 4.8.1 7.5l1.4 6.8c.5 2.2 1.3 4.1 2.1 6.1.4.9.8 1.9 1.2 2.8l2.2 5.9c.8 2.1 2.1 3.9 3.4 5.7.4.5.8 1.1 1.1 1.6l1.2 1.8-.3-2.1c-.5-3.1-.9-6.3.2-9.5l.1-.2Z"/> <path fill="#FFF1E1" d="M592.3 335c.5-1.6.1-3.9-1.1-5.2-.7-.8-1.7-1.1-2.6-.9-2.2.5-5 2.5-6.4 4.2-2.1 2.3-2.5 5.4-2.9 8.4-.2 1.2-.3 2.3-.6 3.3-.5-.2-1.2-.3-1.6.1-.5.4-.6 1.2-.2 2.2l.1.4 4.8-.1c1.3 0 3.4-2 4-3 1.2-2.2 2.1-3.9 4.7-4.2l.4 0 0-.4c.1-1.2.4-2 .9-3 .2-.5.4-1 .6-1.5Z"/> <path fill="#FFF1E1" d="M470.7 243.7c1-.7 2-1.4 2.1-2.5l0-.1-.9-4.5-6.3 8c-8.4 6.4-11.6 13.4-10.3 16.8.4 1.1 1.3 1.8 2.5 1.9.2 0 .4 0 .7 0 2.3-.2 2.9-1.1 3.8-3.2l4.3-4.2 0-.2c.1-3.5.4-7.4 2.3-10.3.4-.6 1.1-1.1 1.8-1.6Z"/> <path fill="#FFF1E1" d="M66.4 231.2c1 .1 2-.1 3-.6 2.3-1 3.2-4.5 2-7.4l-1.9-4.4-.1-.1c-.8-.9-3.2-1.5-4.1-1.5-1.6 0-3.9.8-5.1 4.7-.9 2.8.4 4.6 1.9 6.6 1.2 1.6 2.7 2.5 4.4 2.6Z"/> <path fill="#FFF1E1" d="M401 375l-.2.1c-1.1 1.4-2.3 3.9-2.4 5.7-.1 2.5 2.5 3.2 3.8 3.5.1 0 .1 0 .2 0 1.9.2 7.4-2.3 9-5.9.9-1.9 1.6-4.1-.5-5.7-1.7-1.3-3.3-1.4-5.5-.2l-4.6 2.5Z"/> <path fill="#FFF1E1" d="M421.6 296.1c.7.5 1.6.8 2.4.9.4 0 .9 0 1.4-.1 1.7-.3 3.3-1.5 4.3-3.2 1.7-2.7 1-5.6-2-8.1-2.1-1.8-5.4-1.3-8.1 1.1-1 .9-1.3 2.5-1.6 4.1-.1.6-.2 1.2-.4 1.7l-.1.4.4.2c1.2.5 1.8 1.2 2.4 1.8.4.4.7.8 1.1 1.1Z"/> <path fill="#FFF1E1" d="M79.4 261.3c.4.2.8.4.9.5-.1-.1-.1-.3-.1-.5l.5.2h0l0 0 .5.2s0 0 0 0l.6-1.2 4.3-5.1 0-.2c-.6-2.7-2-4.9-4-6.3-2-1.3-3.6-.5-5 .5-2.5 1.9-3.6 4.4-3 6.8.7 2.6 3.7 4.2 5.3 5Z"/> <path fill="#FFF1E1" d="M613 423.4c.6-2 1.8-3.3 2.8-4.6 1.9-2.2 3.6-4.3 1.3-9.1l-.2-.4-.4.2c-3.8 1.7-6 4.6-8.2 7.6-.6.8-1.2 1.6-1.9 2.5l-.1.2.2 5 6.4-1 .1-.3Z"/> <path fill="#FFF1E1" d="M452.9 149.6c.8-.7.8-2.2.6-3-.1-.9-.6-2.4-1.3-2.8-2.1-2.6-4.1-3.3-7.1-2.6l-.2.1c-1.7 1.1-4.5 4.2-3.5 6.4.9 1.9 2.5 3.2 4.6 3.7.3.1.6.1 1 .1 2.1.2 4.2-.5 5.8-1.9l0 0Z"/> <path fill="#FFF1E1" d="M433.5 309.6c.1 0 .2 0 .2 0 1.6.1 3.4-.6 4.3-1.6 1.7-1.8 2.6-4.9.5-7.3-.8-1-2.7-1.5-3.9-1.3-1.8.2-3.6 1.8-4.5 3.9-.7 1.8-.6 3.6.3 4.8.7.9 1.7 1.4 2.9 1.5Z"/> <path fill="#FFF1E1" d="M448.7 160.9l5.1 3.5.1-.8c.3-1.5 1-2.5 1.7-3.4.8-1 1.6-2.1 1.5-3.8 0-1.2-.7-2.4-1.9-3.4-1.1-.9-2.3-1.5-3.3-1.4-1.7.2-3.8 3.1-4.4 5.4-.4 1.7-.1 3.1 1 3.8Z"/> <path fill="#FFF1E1" d="M599.1 345.9c.1 0 .2 0 .3 0 1.3 0 2.5-.9 3-2.5.5-1.4.3-3.4-1.1-4.4-1.5-1-3.5-1.2-5.4-.5-1.7.6-2.9 1.9-3.3 3.4l-.1.3.3.2c.4.3.9.6 1.3.9 1.4 1.1 3 2.3 4.9 2.4Z"/> <path fill="#FFF1E1" d="M266.2 347.6l-3.1-8.6c0-.4.1-.5.3-.6.1 0 .4.2.6.8l.9 2.6.2-10.8c-.9-4.3-.7-7.5.7-11l1.7-10.9c.5-3.3 1.1-6.3 1.9-10.2.1-.4.2-.7.4-1.1.4-.7.8-1.5.8-3l0-9.1c0-.4-.1-.7-.2-1-.1-.8-.3-1.5-.1-2.7l1.2-10.5-2-12.2c0-.1 0-.4 0-.6 0-.5 0-.8-.1-1.1-.2-.2-.4-.3-.7-.4-.2-.1-.6-.2-1-.4l-.5-.3-.2.6c-.9 2.6-.9 5.3-.8 8.3l-.8 3.3.1.2c.9 2.3.1 4.1-1 6.2l-.1.1 0 .1c0 .3 0 .7.1 1.2.1 1.2.2 2.5-.4 3.6-.6 1-.3 2.2 0 3.3.2.6.3 1.2.2 1.6l-2.2 12.8-2.4 19.9 0 .1 1.7 10.5c0 0-.1 0-.1 0-.7.2-1.6.5-2.1 1.6-2-2.7-2.8-5.7-3.7-9.1l-.3-1.2c-.3-1.2-1.4-2.3-2.4-3.3-.9-1-1.9-1.9-2.2-3l-2.4-9-.1-.2c-7.5-10-5.4-18-3.9-24 .4-1.7.8-3.3 1-4.7l1-11.5-.3-4.8c.6-4.1.4-7.9.2-12 0-.9-.1-1.8-.1-2.7 0-1.1 0-2.2.1-3.4.2-2.8.4-5.7-.9-8.3-.3-.5-.7-.9-1-1.3-.9-1-1.7-1.8-.7-3.3l.1-.2-.1-.2c-.9-2.2-2.1-6.4 0-10.2l.1-.2-3.8-17.2-.1-.1c-1.4-1.2-2-2.9-2.6-4.7-.5-1.4-1-2.8-1.9-4.1l-.3-.5-.4.4c-2 1.9-1.5 4.4-1.4 5.2l4.3 21.6c.2.8.4 1.6.5 2.3.4 1.8.9 3.4.8 5.8l-.4 10.2c-.1 1.5 0 2.9 0 4.3.1 2.1.2 4.1-.2 6.3-.2 1.3 0 2.7.2 4.1.3 1.8.5 3.6-.1 5.2-.1-.9-.1-1.8 0-2.6.1-1.2.1-2.4-.4-3.5l-.9-1.8-.1 2c0 1.6-.2 3.1-.4 4.6-.4 3.5-.7 6.6.5 8.9l.6 1.2.3-1.3c.1-.3.1-.6.1-.9 0 .9 0 1.9 0 2.7-.2 4.5-.3 8.7.6 13.2.2.8.4 1.7.5 2.5.6 2.5 1.1 4.9 1 7.1l-6-12.1-12.5-23.3c-1.6-3-1.6-6-1.6-9 0-2.5 0-5.1-1-7.6-.6-1.4-.6-2.9-.6-4.2 0-1.1 0-2.1-.3-3.2-.2-.9-.5-1.8-.7-2.7-.7-2.4-1.3-4.7-1.6-7.4-.1-1.2-.7-3.1-1.6-5.5-.9-2.7-2.1-6-2.9-9.6l-4-7.6c-.6-1-.9-2.3-1.2-3.6-.6-2.2-1.1-4.5-2.8-6-.3-.3-.6-.5-.9-.7-1.1-.9-1.7-1.4-1.7-3.5 0-2.8-5.8-11.9-9.6-15.7-.4-.4-.7-.9-1-1.4-.8-1.2-1.6-2.5-3.6-2.9l-.9-.2.3.8c1.1 2.8 1.2 5 .3 7.4l-.4 1 1-.3c.8-.3 1.3-.7 1.6-1 .1-.1.2-.2.2-.3.1.1.4.7.4.9.1.2.1.3.2.4l8.1 14.9c.9 1.7 1.1 2.5 1.2 4.3 0 .7.4 1.3.9 2 .7 1.1 1.4 2.3.7 3.4l-.1.2c-.5.8-1.2 1.9-.8 2.9.3.8 1.2 1.6 2 2.1l1 .7-.3-1.2c-.2-.9-.1-1.4.2-1.7l2.8 11.9c.2 1 .5 1.7.7 2.4.2.7.4 1.3.6 2.1l3.8 17.1.7 5.2-11.8-14.9-5.4-6.3c-1.7-2-3.5-4-5.5-5.5-.6-.4-1.2-.6-1.9-.9-1.4-.5-2.2-.8-2.3-2.2l0-.2-4-3.7c-3-2.8-5.8-4.6-9.4-6.2l-.5.9c1.5 1.1 2.3 2.4 3.2 3.8.4.7.8 1.3 1.3 2 1.2 1.5 2.8 3.3 4.3 4.9 1.6 1.7 3.6 3.8 3.7 4.4.1.7-.1 1.4-.4 2.3-.1.3-.2.6-.3.9-.1.4 0 .8.3 1.1.8.7 2.6.8 3.6.6.5.7 1.2 1.4 1.8 2.1 1.9 2.2 4 4.7 5.1 7-.1.2-.2.5-.4.8-.5 1-1.2 2.1-.5 3.3.4.7 1.4 1.7 2.5 1.8.5.1 1.1-.1 1.5-.5l.1-.1c0-.1.1-.3.2-.4.1-.2.3-.8.4-.8.4.3.9.8 1.1 1.2l7.2 12c-3.2-1.6-6.3-2.1-8.4-2.3-1.3-.2-2.6-.4-2.6-.6.1-.1.5-.4.8-.5 1.2-.7 3-1.7 2.9-3.5 0-.8-.4-1.5-1-2.1-2.6-2.2-8.8-1.8-10.7-1.6l-.5.1 0 .5c0 .8-.1 1.2-.4 1.5-.9.6-3.3-.3-6.1-1.3-3.3-1.2-7.4-2.7-11.9-3-1.7-2.4-4.3-3.3-7.6-2.6-.8-.2-1.7-.5-2.5-.7-3.3-1-6.5-1.9-10.2-1.5l-1.4.1 5.5 3.9 11.6 6 10.3 2.9c1.7.5 3.4.7 5.1 1 2.6.4 5.2.8 7.9 1.9-.2.1-.4.3-.7.4l-.8.3 3.9 3.2.3-.4c1-1.2 3-1.8 4.1-.9l6.3 4.8c.2.2.5.6.7 1.1.5 1 1.2 2.2 2.5 2.3.1 0 .1 0 .2 0 2.2.2 6.6 3.2 9.4 6l.1.1c3.3 1.6 5.2 3.8 5.8 6.8l0 .2.2.1c3 2 4.2 6.4 2.5 9.2-.4.6-.3 1.2-.1 1.5.4.8 1.4 1.2 2.1 1.3.1 0 .2 0 .2 0 .5.1 1.4.3 2.1-.7l6.9 14.4c.2.4.2.9-.1 1.3 0 .1-.1.1-.1.2l-.7-1-14.3-8.6-17-7.9-13.4-4.9c-1.3-.5-2.6-.9-3.8-1.4-4.5-1.6-8.7-3.1-13-5.2-2.1-1.1-4.5-1.3-6.4-.6l-.7.3.5.6c2.7 2.9 5.8 4.5 8.3 5.8 1.9 1 3.4 1.8 4.1 2.8.7 1.1 2 1.3 3.1 1.5.6.1 1.2.2 1.6.4 5.7 3.3 11 6.2 17.1 8.1 3.9 1.2 6.5 3.3 8.8 5.1 2 1.6 3.9 3.1 6.2 3.7 6.3 1.7 9.3 4.5 11.8 6.8 1.3 1.2 2.5 2.3 3.8 2.9.6.2 1.2.5 1.8.8 3.9 1.7 8 3.4 10.7 6.6.5 2.8 1.9 5 3.3 7.3 1.9 3.1 3.8 6.3 4 11l0 .3.2.1c2.1 1.3 2.9 3 2.9 5.7l0 .3.2.1c.8.5 1.4 1.6 1.5 2.7 0 .4 0 1-.5 1.4-2.6.4-3.8-.8-5.8-2.9-1.7-1.7-3.9-4.1-8-6.5l-6.4-3.8c-11.8-7.1-27.2-12.4-37.3-15.9-6.2-2.1-11-3.8-12-4.8l-.1-.1-2.2-.2-.3 0-.2.2c-.2.3 0 .6.1.9 0 .1.1.2.1.2 0 0 0 0 0 0-.1 1 1 1.4 2.1 1.9 1 .4 2.3.8 3.1 1.8-.2 1.1-.5 2.8.6 3.4 1.1.6 2.4.1 3.7-1.2 3.2.8 6.3 2.9 9.3 5.1.7.5 1.3.9 1.9 1.4 4.2 2.9 9.8 5.7 14.3 7.9 3 1.5 6.1 3 6.4 3.5.1.6.1 1-.1 1.9l-.2 1.2.8-.3c3.8-1.5 7.5.7 11.8 3.2 3.1 1.8 6.2 3.6 9.8 4.3 2.6.5 4.5 1 6.4 3l5.4 6c1.3 1.4 2.4 2.6 3.1 4.3l4.5 10.3.1.1c.6.7 1.3 1.3 1.9 1.9 1.4 1.4 2.8 2.7 4.1 5.2l1.5 2.8-1.3-7.8c-.1-.4 1.1-1.1 1.6-1.4.2-.1.4-.2.5-.3l.2-.2 0-.3c-.1-4.5-1.8-8.8-3.3-13-.3-.8-.6-1.6-.9-2.4ZM237.8 260.9c-.1-1-.3-1.9.2-2.6 0 1.2 0 2.4-.1 3.6 0-.3-.1-.7-.1-1Z"/> <path fill="#FFF1E1" d="M212.1 379.3c1.5.1 3-.3 4.4-1.4l.2-.1.4-4.1c.2-2.8-1-4.2-2.3-5.2-1.5-1.2-3.8-1.2-5.3.1-1.5 1.2-2.5 3-2.6 4.7-.1 1.5.4 2.9 1.4 4 1.1 1.2 2.5 1.9 3.9 2Z"/> <path fill="#FFF1E1" d="M220.9 393c.3 0 .7 0 1.1-.1 3.2-.9 5.1-2.9 4.9-5.1-.2-2.5-.7-4.8-3.7-5.7-1.6-.5-5.1-.5-5.9 1.7-.8 2.2-1.4 4.1-.2 6.1.6 1.2 2.1 2.9 3.9 3.1Z"/> </g></svg>